# https://github.com/mikedh/trimesh
v -0.48637795 -0.07535434 0.00479650 0.57647059 0.59215686 0.58431373
v 0.47267711 0.00685036 0.27577639 0.69019608 0.70196078 0.71372549
f 1 1 1
f 1 1 1
f 1 1 1
f 1 1 1
f 1 1 1
f 1 1 1
f 1 1 1
f 1 1 1
f 1 1 1
f 1 1 1
f 1 1 1
f 1 1 1
f 1 1 1
f 1 1 1
f 1 1 1
f 1 1 1
f 1 1 1
f 1 1 1
f 1 1 1
f 1 1 1
f 1 1 1
f 1 1 1
f 1 1 1
f 1 1 1
f 1 1 1
f 1 1 1
f 1 1 1
f 1 1 1
f 1 1 1
f 1 1 1
f 1 1 1
f 1 1 1
f 1 1 1
f 1 1 1
f 1 1 1
f 1 1 1
f 1 1 1
f 1 1 1
f 1 1 1
f 1 1 1
f 1 1 1
f 1 1 1
f 1 1 1
f 1 1 1
f 1 1 1
f 1 1 1
f 1 1 1
f 1 1 1
f 1 1 1
f 1 1 1
f 1 1 1
f 1 1 1
f 1 1 1
f 1 1 1
f 1 1 1
f 1 1 1
f 1 1 1
f 1 1 1
f 1 1 1
f 1 1 1
f 1 1 1
f 1 1 1
f 1 1 1
f 1 1 1
f 1 1 1
f 1 1 1
f 1 1 1
f 1 1 1
f 1 1 1
f 1 1 1
f 1 1 1
f 1 1 1
f 1 1 1
f 1 1 1
f 1 1 1
f 1 1 1
f 1 1 1
f 1 1 1
f 1 1 1
f 1 1 1
f 1 1 1
f 1 1 1
f 1 1 1
f 1 1 1
f 1 1 1
f 1 1 1
f 1 1 1
f 1 1 1
f 1 1 1
f 1 1 1
f 1 1 1
f 1 1 1
f 1 1 1
f 1 1 1
f 1 1 1
f 1 1 1
f 1 1 1
f 1 1 1
f 1 1 1
f 1 1 1
f 1 1 1
f 1 1 1
f 1 1 1
f 1 1 1
f 1 1 1
f 1 1 1
f 1 1 1
f 1 1 1
f 1 1 1
f 1 1 1
f 1 1 1
f 1 1 1
f 1 1 1
f 1 1 1
f 1 1 1
f 1 1 1
f 1 1 1
f 1 1 1
f 1 1 1
f 1 1 1
f 1 1 1
f 1 1 1
f 1 1 1
f 1 1 1
f 1 1 1
f 1 1 1
f 1 1 1
f 1 1 1
f 1 1 1
f 1 1 1
f 1 1 1
f 1 1 1
f 1 1 1
f 1 1 1
f 1 1 1
f 1 1 1
f 1 1 1
f 1 1 1
f 1 1 1
f 1 1 1
f 1 1 1
f 1 1 1
f 1 1 1
f 1 1 1
f 1 1 1
f 1 1 1
f 1 1 1
f 1 1 1
f 1 1 1
f 1 1 1
f 1 1 1
f 1 1 1
f 1 1 1
f 1 1 1
f 1 1 1
f 1 1 1
f 1 1 1
f 1 1 1
f 1 1 1
f 1 1 1
f 1 1 1
f 1 1 1
f 1 1 1
f 1 1 1
f 1 1 1
f 1 1 1
f 1 1 1
f 1 1 1
f 1 1 1
f 1 1 1
f 1 1 1
f 1 1 1
f 1 1 1
f 1 1 1
f 1 1 1
f 1 1 1
f 1 1 1
f 1 1 1
f 1 1 1
f 1 1 1
f 1 1 1
f 1 1 1
f 1 1 1
f 1 1 1
f 1 1 1
f 1 1 1
f 1 1 1
f 1 1 1
f 1 1 1
f 1 1 1
f 1 1 1
f 1 1 1
f 1 1 1
f 1 1 1
f 1 1 1
f 1 1 1
f 1 1 1
f 1 1 1
f 1 1 1
f 1 1 1
f 1 1 1
f 1 1 1
f 1 1 1
f 1 1 1
f 1 1 1
f 1 1 1
f 1 1 1
f 1 1 1
f 1 1 1
f 1 1 1
f 1 1 1
f 1 1 1
f 1 1 1
f 1 1 1
f 1 1 1
f 1 1 1
f 1 1 1
f 1 1 1
f 1 1 1
f 1 1 1
f 1 1 1
f 1 1 1
f 1 1 1
f 1 1 1
f 1 1 1
f 1 1 1
f 1 1 1
f 1 1 1
f 1 1 1
f 1 1 1
f 1 1 1
f 1 1 1
f 1 1 1
f 1 1 1
f 1 1 1
f 1 1 1
f 1 1 1
f 1 1 1
f 1 1 1
f 1 1 1
f 1 1 1
f 1 1 1
f 1 1 1
f 1 1 1
f 1 1 1
f 1 1 1
f 1 1 1
f 1 1 1
f 1 1 1
f 1 1 1
f 1 1 1
f 1 1 1
f 1 1 1
f 1 1 1
f 1 1 1
f 1 1 1
f 1 1 1
f 1 1 1
f 1 1 1
f 1 1 1
f 1 1 1
f 1 1 1
f 1 1 1
f 1 1 1
f 1 1 1
f 1 1 1
f 1 1 1
f 1 1 1
f 1 1 1
f 1 1 1
f 1 1 1
f 1 1 1
f 1 1 1
f 1 1 1
f 1 1 1
f 1 1 1
f 1 1 1
f 1 1 1
f 1 1 1
f 1 1 1
f 1 1 1
f 1 1 1
f 1 1 1
f 1 1 1
f 1 1 1
f 1 1 1
f 1 1 1
f 1 1 1
f 1 1 1
f 1 1 1
f 1 1 1
f 1 1 1
f 1 1 1
f 1 1 1
f 1 1 1
f 1 1 1
f 1 1 1
f 1 1 1
f 1 1 1
f 1 1 1
f 1 1 1
f 1 1 1
f 1 1 1
f 1 1 1
f 1 1 1
f 1 1 1
f 1 1 1
f 1 1 1
f 1 1 1
f 1 1 1
f 1 1 1
f 1 1 1
f 1 1 1
f 1 1 1
f 1 1 1
f 1 1 1
f 1 1 1
f 1 1 1
f 1 1 1
f 1 1 1
f 1 1 1
f 1 1 1
f 1 1 1
f 1 1 1
f 1 1 1
f 1 1 1
f 1 1 1
f 1 1 1
f 1 1 1
f 1 1 1
f 1 1 1
f 1 1 1
f 1 1 1
f 1 1 1
f 1 1 1
f 1 1 1
f 1 1 1
f 1 1 1
f 1 1 1
f 1 1 1
f 1 1 1
f 1 1 1
f 1 1 1
f 1 1 1
f 1 1 1
f 1 1 1
f 1 1 1
f 1 1 1
f 1 1 1
f 1 1 1
f 1 1 1
f 1 1 1
f 1 1 1
f 1 1 1
f 1 1 1
f 1 1 1
f 1 1 1
f 1 1 1
f 1 1 1
f 1 1 1
f 1 1 1
f 1 1 1
f 1 1 1
f 1 1 1
f 1 1 1
f 1 1 1
f 1 1 1
f 1 1 1
f 1 1 1
f 1 1 1
f 1 1 1
f 1 1 1
f 1 1 1
f 1 1 1
f 1 1 1
f 1 1 1
f 1 1 1
f 1 1 1
f 1 1 1
f 1 1 1
f 1 1 1
f 1 1 1
f 1 1 1
f 1 1 1
f 1 1 1
f 1 1 1
f 1 1 1
f 1 1 1
f 1 1 1
f 1 1 1
f 1 1 1
f 1 1 1
f 1 1 1
f 1 1 1
f 1 1 1
f 1 1 1
f 1 1 1
f 1 1 1
f 1 1 1
f 1 1 1
f 1 1 1
f 1 1 1
f 1 1 1
f 1 1 1
f 1 1 1
f 1 1 1
f 1 1 1
f 1 1 1
f 1 1 1
f 1 1 1
f 1 1 1
f 1 1 1
f 1 1 1
f 1 1 1
f 1 1 1
f 1 1 1
f 1 1 1
f 1 1 1
f 1 1 1
f 1 1 1
f 1 1 1
f 1 1 1
f 1 1 1
f 1 1 1
f 1 1 1
f 1 1 1
f 1 1 1
f 1 1 1
f 1 1 1
f 1 1 1
f 1 1 1
f 1 1 1
f 1 1 1
f 1 1 1
f 1 1 1
f 1 1 1
f 1 1 1
f 1 1 1
f 1 1 1
f 1 1 1
f 1 1 1
f 1 1 1
f 1 1 1
f 1 1 1
f 1 1 1
f 1 1 1
f 1 1 1
f 1 1 1
f 1 1 1
f 1 1 1
f 1 1 1
f 1 1 1
f 1 1 1
f 1 1 1
f 1 1 1
f 1 1 1
f 1 1 1
f 1 1 1
f 1 1 1
f 1 1 1
f 1 1 1
f 1 1 1
f 1 1 1
f 1 1 1
f 1 1 1
f 1 1 1
f 1 1 1
f 1 1 1
f 1 1 1
f 1 1 1
f 1 1 1
f 1 1 1
f 1 1 1
f 1 1 1
f 1 1 1
f 1 1 1
f 1 1 1
f 1 1 1
f 1 1 1
f 1 1 1
f 1 1 1
f 1 1 1
f 1 1 1
f 1 1 1
f 1 1 1
f 1 1 1
f 1 1 1
f 1 1 1
f 1 1 1
f 1 1 1
f 1 1 1
f 1 1 1
f 1 1 1
f 1 1 1
f 1 1 1
f 1 1 1
f 1 1 1
f 1 1 1
f 1 1 1
f 1 1 1
f 1 1 1
f 1 1 1
f 1 1 1
f 1 1 1
f 1 1 1
f 1 1 1
f 1 1 1
f 1 1 1
f 1 1 1
f 1 1 1
f 1 1 1
f 1 1 1
f 1 1 1
f 1 1 1
f 1 1 1
f 1 1 1
f 1 1 1
f 1 1 1
f 1 1 1
f 1 1 1
f 1 1 1
f 1 1 1
f 1 1 1
f 1 1 1
f 1 1 1
f 1 1 1
f 1 1 1
f 1 1 1
f 1 1 1
f 1 1 1
f 1 1 1
f 1 1 1
f 1 1 1
f 1 1 1
f 1 1 1
f 1 1 1
f 1 1 1
f 1 1 1
f 1 1 1
f 1 1 1
f 1 1 1
f 1 1 1
f 1 1 1
f 1 1 1
f 1 1 1
f 1 1 1
f 1 1 1
f 1 1 1
f 1 1 1
f 1 1 1
f 1 1 1
f 1 1 1
f 1 1 1
f 1 1 1
f 1 1 1
f 1 1 1
f 1 1 1
f 1 1 1
f 1 1 1
f 1 1 1
f 1 1 1
f 1 1 1
f 1 1 1
f 1 1 1
f 1 1 1
f 1 1 1
f 1 1 1
f 1 1 1
f 1 1 1
f 1 1 1
f 1 1 1
f 1 1 1
f 1 1 1
f 1 1 1
f 1 1 1
f 1 1 1
f 1 1 1
f 1 1 1
f 1 1 1
f 1 1 1
f 1 1 1
f 1 1 1
f 1 1 1
f 1 1 1
f 1 1 1
f 1 1 1
f 1 1 1
f 1 1 1
f 1 1 1
f 1 1 1
f 1 1 1
f 1 1 1
f 1 1 1
f 1 1 1
f 1 1 1
f 1 1 1
f 1 1 1
f 1 1 1
f 1 1 1
f 1 1 1
f 1 1 1
f 1 1 1
f 1 1 1
f 1 1 1
f 1 1 1
f 1 1 1
f 1 1 1
f 1 1 1
f 1 1 1
f 1 1 1
f 1 1 1
f 1 1 1
f 1 1 1
f 1 1 1
f 1 1 1
f 1 1 1
f 1 1 1
f 1 1 1
f 1 1 1
f 1 1 1
f 1 1 1
f 1 1 1
f 1 1 1
f 1 1 1
f 1 1 1
f 1 1 1
f 1 1 1
f 1 1 1
f 1 1 1
f 1 1 1
f 1 1 1
f 1 1 1
f 1 1 1
f 1 1 1
f 1 1 1
f 1 1 1
f 1 1 1
f 1 1 1
f 1 1 1
f 1 1 1
f 1 1 1
f 1 1 1
f 1 1 1
f 1 1 1
f 1 1 1
f 1 1 1
f 1 1 1
f 1 1 1
f 1 1 1
f 1 1 1
f 1 1 1
f 1 1 1
f 1 1 1
f 1 1 1
f 1 1 1
f 1 1 1
f 1 1 1
f 1 1 1
f 1 1 1
f 1 1 1
f 1 1 1
f 1 1 1
f 1 1 1
f 1 1 1
f 1 1 1
f 1 1 1
f 1 1 1
f 1 1 1
f 1 1 1
f 1 1 1
f 1 1 1
f 1 1 1
f 1 1 1
f 1 1 1
f 1 1 1
f 1 1 1
f 1 1 1
f 1 1 1
f 1 1 1
f 1 1 1
f 1 1 1
f 1 1 1
f 1 1 1
f 1 1 1
f 1 1 1
f 1 1 1
f 1 1 1
f 1 1 1
f 1 1 1
f 1 1 1
f 1 1 1
f 1 1 1
f 1 1 1
f 1 1 1
f 1 1 1
f 1 1 1
f 1 1 1
f 1 1 1
f 1 1 1
f 1 1 1
f 1 1 1
f 1 1 1
f 1 1 1
f 1 1 1
f 1 1 1
f 1 1 1
f 1 1 1
f 1 1 1
f 1 1 1
f 1 1 1
f 1 1 1
f 1 1 1
f 1 1 1
f 1 1 1
f 1 1 1
f 1 1 1
f 1 1 1
f 1 1 1
f 1 1 1
f 1 1 1
f 1 1 1
f 1 1 1
f 1 1 1
f 1 1 1
f 1 1 1
f 1 1 1
f 1 1 1
f 1 1 1
f 1 1 1
f 1 1 1
f 1 1 1
f 1 1 1
f 1 1 1
f 1 1 1
f 1 1 1
f 1 1 1
f 1 1 1
f 1 1 1
f 1 1 1
f 1 1 1
f 1 1 1
f 1 1 1
f 1 1 1
f 1 1 1
f 1 1 1
f 1 1 1
f 1 1 1
f 1 1 1
f 1 1 1
f 1 1 1
f 1 1 1
f 1 1 1
f 1 1 1
f 1 1 1
f 1 1 1
f 1 1 1
f 1 1 1
f 1 1 1
f 1 1 1
f 1 1 1
f 1 1 1
f 1 1 1
f 1 1 1
f 1 1 1
f 1 1 1
f 1 1 1
f 1 1 1
f 1 1 1
f 1 1 1
f 1 1 1
f 1 1 1
f 1 1 1
f 1 1 1
f 1 1 1
f 1 1 1
f 1 1 1
f 1 1 1
f 1 1 1
f 1 1 1
f 1 1 1
f 1 1 1
f 1 1 1
f 1 1 1
f 1 1 1
f 1 1 1
f 1 1 1
f 1 1 1
f 1 1 1
f 1 1 1
f 1 1 1
f 1 1 1
f 1 1 1
f 1 1 1
f 1 1 1
f 1 1 1
f 1 1 1
f 1 1 1
f 1 1 1
f 1 1 1
f 1 1 1
f 1 1 1
f 1 1 1
f 1 1 1
f 1 1 1
f 1 1 1
f 1 1 1
f 1 1 1
f 1 1 1
f 1 1 1
f 1 1 1
f 1 1 1
f 1 1 1
f 1 1 1
f 1 1 1
f 1 1 1
f 1 1 1
f 1 1 1
f 1 1 1
f 1 1 1
f 1 1 1
f 1 1 1
f 1 1 1
f 1 1 1
f 1 1 1
f 1 1 1
f 1 1 1
f 1 1 1
f 1 1 1
f 1 1 1
f 1 1 1
f 1 1 1
f 1 1 1
f 1 1 1
f 1 1 1
f 1 1 1
f 1 1 1
f 1 1 1
f 1 1 1
f 1 1 1
f 1 1 1
f 1 1 1
f 1 1 1
f 1 1 1
f 1 1 1
f 1 1 1
f 1 1 1
f 1 1 1
f 1 1 1
f 1 1 1
f 1 1 1
f 1 1 1
f 1 1 1
f 1 1 1
f 1 1 1
f 1 1 1
f 1 1 1
f 1 1 1
f 1 1 1
f 1 1 1
f 1 1 1
f 1 1 1
f 1 1 1
f 1 1 1
f 1 1 1
f 1 1 1
f 1 1 1
f 1 1 1
f 1 1 1
f 1 1 1
f 1 1 1
f 1 1 1
f 1 1 1
f 1 1 1
f 1 1 1
f 1 1 1
f 1 1 1
f 1 1 1
f 1 1 1
f 1 1 1
f 1 1 1
f 1 1 1
f 1 1 1
f 1 1 1
f 1 1 1
f 1 1 1
f 1 1 1
f 1 1 1
f 1 1 1
f 1 1 1
f 1 1 1
f 1 1 1
f 1 1 1
f 1 1 1
f 1 1 1
f 1 1 1
f 1 1 1
f 1 1 1
f 1 1 1
f 1 1 1
f 1 1 1
f 1 1 1
f 1 1 1
f 1 1 1
f 1 1 1
f 1 1 1
f 1 1 1
f 1 1 1
f 1 1 1
f 1 1 1
f 1 1 1
f 1 1 1
f 1 1 1
f 1 1 1
f 1 1 1
f 1 1 1
f 1 1 1
f 1 1 1
f 1 1 1
f 1 1 1
f 1 1 1
f 1 1 1
f 1 1 1
f 1 1 1
f 1 1 1
f 1 1 1
f 1 1 1
f 1 1 1
f 1 1 1
f 1 1 1
f 1 1 1
f 1 1 1
f 1 1 1
f 1 1 1
f 1 1 1
f 1 1 1
f 1 1 1
f 1 1 1
f 1 1 1
f 1 1 1
f 1 1 1
f 1 1 1
f 1 1 1
f 1 1 1
f 1 1 1
f 1 1 1
f 1 1 1
f 1 1 1
f 1 1 1
f 1 1 1
f 1 1 1
f 1 1 1
f 1 1 1
f 1 1 1
f 1 1 1
f 1 1 1
f 1 1 1
f 1 1 1
f 1 1 1
f 1 1 1
f 1 1 1
f 1 1 1
f 1 1 1
f 1 1 1
f 1 1 1
f 1 1 1
f 1 1 1
f 1 1 1
f 1 1 1
f 1 1 1
f 1 1 1
f 1 1 1
f 1 1 1
f 1 1 1
f 1 1 1
f 1 1 1
f 1 1 1
f 1 1 1
f 1 1 1
f 1 1 1
f 1 1 1
f 1 1 1
f 1 1 1
f 1 1 1
f 1 1 1
f 1 1 1
f 1 1 1
f 1 1 1
f 1 1 1
f 1 1 1
f 1 1 1
f 1 1 1
f 1 1 1
f 1 1 1
f 1 1 1
f 1 1 1
f 1 1 1
f 1 1 1
f 1 1 1
f 1 1 1
f 1 1 1
f 1 1 1
f 1 1 1
f 1 1 1
f 1 1 1
f 1 1 1
f 1 1 1
f 1 1 1
f 1 1 1
f 1 1 1
f 1 1 1
f 1 1 1
f 1 1 1
f 1 1 1
f 1 1 1
f 1 1 1
f 1 1 1
f 1 1 1
f 1 1 1
f 1 1 1
f 1 1 1
f 1 1 1
f 1 1 1
f 1 1 1
f 1 1 1
f 1 1 1
f 1 1 1
f 1 1 1
f 1 1 1
f 1 1 1
f 1 1 1
f 1 1 1
f 1 1 1
f 1 1 1
f 1 1 1
f 1 1 1
f 1 1 1
f 1 1 1
f 1 1 1
f 1 1 1
f 1 1 1
f 1 1 1
f 1 1 1
f 1 1 1
f 1 1 1
f 1 1 1
f 1 1 1
f 1 1 1
f 1 1 1
f 1 1 1
f 1 1 1
f 1 1 1
f 1 1 1
f 1 1 1
f 1 1 1
f 1 1 1
f 1 1 1
f 1 1 1
f 1 1 1
f 1 1 1
f 1 1 1
f 1 1 1
f 1 1 1
f 1 1 1
f 1 1 1
f 1 1 1
f 1 1 1
f 1 1 1
f 1 1 1
f 1 1 1
f 1 1 1
f 1 1 1
f 1 1 1
f 1 1 1
f 1 1 1
f 1 1 1
f 1 1 1
f 1 1 1
f 1 1 1
f 1 1 1
f 1 1 1
f 1 1 1
f 1 1 1
f 1 1 1
f 1 1 1
f 1 1 1
f 1 1 1
f 1 1 1
f 1 1 1
f 1 1 1
f 1 1 1
f 1 1 1
f 1 1 1
f 1 1 1
f 1 1 1
f 1 1 1
f 1 1 1
f 1 1 1
f 1 1 1
f 1 1 1
f 1 1 1
f 1 1 1
f 1 1 1
f 1 1 1
f 1 1 1
f 1 1 1
f 1 1 1
f 1 1 1
f 1 1 1
f 1 1 1
f 1 1 1
f 1 1 1
f 1 1 1
f 1 1 1
f 1 1 1
f 1 1 1
f 1 1 1
f 1 1 1
f 1 1 1
f 1 1 1
f 1 1 1
f 1 1 1
f 1 1 1
f 1 1 1
f 1 1 1
f 1 1 1
f 1 1 1
f 1 1 1
f 1 1 1
f 1 1 1
f 1 1 1
f 1 1 1
f 1 1 1
f 1 1 1
f 1 1 1
f 1 1 1
f 1 1 1
f 1 1 1
f 1 1 1
f 1 1 1
f 1 1 1
f 1 1 1
f 1 1 1
f 1 1 1
f 1 1 1
f 1 1 1
f 1 1 1
f 1 1 1
f 1 1 1
f 1 1 1
f 1 1 1
f 1 1 1
f 1 1 1
f 1 1 1
f 1 1 1
f 1 1 1
f 1 1 1
f 1 1 1
f 1 1 1
f 1 1 1
f 1 1 1
f 1 1 1
f 1 1 1
f 1 1 1
f 1 1 1
f 1 1 1
f 1 1 1
f 1 1 1
f 1 1 1
f 1 1 1
f 1 1 1
f 1 1 1
f 1 1 1
f 1 1 1
f 1 1 1
f 1 1 1
f 1 1 1
f 1 1 1
f 1 1 1
f 1 1 1
f 1 1 1
f 1 1 1
f 1 1 1
f 1 1 1
f 1 1 1
f 1 1 1
f 1 1 1
f 1 1 1
f 1 1 1
f 1 1 1
f 1 1 1
f 1 1 1
f 1 1 1
f 1 1 1
f 1 1 1
f 1 1 1
f 1 1 1
f 1 1 1
f 1 1 1
f 1 1 1
f 1 1 1
f 1 1 1
f 1 1 1
f 1 1 1
f 1 1 1
f 1 1 1
f 1 1 1
f 1 1 1
f 1 1 1
f 1 1 1
f 1 1 1
f 1 1 1
f 1 1 1
f 1 1 1
f 1 1 1
f 1 1 1
f 1 1 1
f 1 1 1
f 1 1 1
f 1 1 1
f 1 1 1
f 1 1 1
f 1 1 1
f 1 1 1
f 1 1 1
f 1 1 1
f 1 1 1
f 1 1 1
f 1 1 1
f 1 1 1
f 1 1 1
f 1 1 1
f 1 1 1
f 1 1 1
f 1 1 1
f 1 1 1
f 1 1 1
f 1 1 1
f 1 1 1
f 1 1 1
f 1 1 1
f 1 1 1
f 1 1 1
f 1 1 1
f 1 1 1
f 1 1 1
f 1 1 1
f 1 1 1
f 1 1 1
f 1 1 1
f 1 1 1
f 1 1 1
f 1 1 1
f 1 1 1
f 1 1 1
f 1 1 1
f 1 1 1
f 1 1 1
f 1 1 1
f 1 1 1
f 1 1 1
f 1 1 1
f 1 1 1
f 1 1 1
f 1 1 1
f 1 1 1
f 1 1 1
f 1 1 1
f 1 1 1
f 1 1 1
f 1 1 1
f 1 1 1
f 1 1 1
f 1 1 1
f 1 1 1
f 1 1 1
f 1 1 1
f 1 1 1
f 1 1 1
f 1 1 1
f 1 1 1
f 1 1 1
f 1 1 1
f 1 1 1
f 1 1 1
f 1 1 1
f 1 1 1
f 1 1 1
f 1 1 1
f 1 1 1
f 1 1 1
f 1 1 1
f 1 1 1
f 1 1 1
f 1 1 1
f 1 1 1
f 1 1 1
f 1 1 1
f 1 1 1
f 1 1 1
f 1 1 1
f 1 1 1
f 1 1 1
f 1 1 1
f 1 1 1
f 1 1 1
f 1 1 1
f 1 1 1
f 1 1 1
f 1 1 1
f 1 1 1
f 1 1 1
f 1 1 1
f 1 1 1
f 1 1 1
f 1 1 1
f 1 1 1
f 1 1 1
f 1 1 1
f 1 1 1
f 1 1 1
f 1 1 1
f 1 1 1
f 1 1 1
f 1 1 1
f 1 1 1
f 1 1 1
f 1 1 1
f 1 1 1
f 1 1 1
f 1 1 1
f 1 1 1
f 1 1 1
f 1 1 1
f 1 1 1
f 1 1 1
f 1 1 1
f 1 1 1
f 1 1 1
f 1 1 1
f 1 1 1
f 1 1 1
f 1 1 1
f 1 1 1
f 1 1 1
f 1 1 1
f 1 1 1
f 1 1 1
f 1 1 1
f 1 1 1
f 1 1 1
f 1 1 1
f 1 1 1
f 1 1 1
f 1 1 1
f 1 1 1
f 1 1 1
f 1 1 1
f 1 1 1
f 1 1 1
f 1 1 1
f 1 1 1
f 1 1 1
f 1 1 1
f 1 1 1
f 1 1 1
f 1 1 1
f 1 1 1
f 1 1 1
f 1 1 1
f 1 1 1
f 1 1 1
f 1 1 1
f 1 1 1
f 1 1 1
f 1 1 1
f 1 1 1
f 1 1 1
f 1 1 1
f 1 1 1
f 1 1 1
f 1 1 1
f 1 1 1
f 1 1 1
f 1 1 1
f 1 1 1
f 1 1 1
f 1 1 1
f 1 1 1
f 1 1 1
f 1 1 1
f 1 1 1
f 1 1 1
f 1 1 1
f 1 1 1
f 1 1 1
f 1 1 1
f 1 1 1
f 1 1 1
f 1 1 1
f 1 1 1
f 1 1 1
f 1 1 1
f 1 1 1
f 1 1 1
f 1 1 1
f 1 1 1
f 1 1 1
f 1 1 1
f 1 1 1
f 1 1 1
f 1 1 1
f 1 1 1
f 1 1 1
f 1 1 1
f 1 1 1
f 1 1 1
f 1 1 1
f 1 1 1
f 1 1 1
f 1 1 1
f 1 1 1
f 1 1 1
f 1 1 1
f 1 1 1
f 1 1 1
f 1 1 1
f 1 1 1
f 1 1 1
f 1 1 1
f 1 1 1
f 1 1 1
f 1 1 1
f 1 1 1
f 1 1 1
f 1 1 1
f 1 1 1
f 1 1 1
f 1 1 1
f 1 1 1
f 1 1 1
f 1 1 1
f 1 1 1
f 1 1 1
f 1 1 1
f 1 1 1
f 1 1 1
f 1 1 1
f 1 1 1
f 1 1 1
f 1 1 1
f 1 1 1
f 1 1 1
f 1 1 1
f 1 1 1
f 1 1 1
f 1 1 1
f 1 1 1
f 1 1 1
f 1 1 1
f 1 1 1
f 1 1 1
f 1 1 1
f 1 1 1
f 1 1 1
f 1 1 1
f 1 1 1
f 1 1 1
f 1 1 1
f 1 1 1
f 1 1 1
f 1 1 1
f 1 1 1
f 1 1 1
f 1 1 1
f 1 1 1
f 1 1 1
f 1 1 1
f 1 1 1
f 1 1 1
f 1 1 1
f 1 1 1
f 1 1 1
f 1 1 1
f 1 1 1
f 1 1 1
f 1 1 1
f 1 1 1
f 1 1 1
f 1 1 1
f 1 1 1
f 1 1 1
f 1 1 1
f 1 1 1
f 1 1 1
f 1 1 1
f 1 1 1
f 1 1 1
f 1 1 1
f 1 1 1
f 1 1 1
f 1 1 1
f 1 1 1
f 1 1 1
f 1 1 1
f 1 1 1
f 1 1 1
f 1 1 1
f 1 1 1
f 1 1 1
f 1 1 1
f 1 1 1
f 1 1 1
f 1 1 1
f 1 1 1
f 1 1 1
f 1 1 1
f 1 1 1
f 1 1 1
f 1 1 1
f 1 1 1
f 1 1 1
f 1 1 1
f 1 1 1
f 1 1 1
f 1 1 1
f 1 1 1
f 1 1 1
f 1 1 1
f 1 1 1
f 1 1 1
f 1 1 1
f 1 1 1
f 1 1 1
f 1 1 1
f 1 1 1
f 1 1 1
f 1 1 1
f 1 1 1
f 1 1 1
f 1 1 1
f 1 1 1
f 1 1 1
f 1 1 1
f 1 1 1
f 1 1 1
f 1 1 1
f 1 1 1
f 1 1 1
f 1 1 1
f 1 1 1
f 1 1 1
f 1 1 1
f 1 1 1
f 1 1 1
f 1 1 1
f 1 1 1
f 1 1 1
f 1 1 1
f 1 1 1
f 1 1 1
f 1 1 1
f 1 1 1
f 1 1 1
f 1 1 1
f 1 1 1
f 1 1 1
f 1 1 1
f 1 1 1
f 1 1 1
f 1 1 1
f 1 1 1
f 1 1 1
f 1 1 1
f 1 1 1
f 1 1 1
f 1 1 1
f 1 1 1
f 1 1 1
f 1 1 1
f 1 1 1
f 1 1 1
f 1 1 1
f 1 1 1
f 1 1 1
f 1 1 1
f 1 1 1
f 1 1 1
f 1 1 1
f 1 1 1
f 1 1 1
f 1 1 1
f 1 1 1
f 1 1 1
f 1 1 1
f 1 1 1
f 1 1 1
f 1 1 1
f 1 1 1
f 1 1 1
f 1 1 1
f 1 1 1
f 1 1 1
f 1 1 1
f 1 1 1
f 1 1 1
f 1 1 1
f 1 1 1
f 1 1 1
f 1 1 1
f 1 1 1
f 1 1 1
f 1 1 1
f 1 1 1
f 1 1 1
f 1 1 1
f 1 1 1
f 1 1 1
f 1 1 1
f 1 1 1
f 1 1 1
f 1 1 1
f 1 1 1
f 1 1 1
f 1 1 1
f 1 1 1
f 1 1 1
f 1 1 1
f 1 1 1
f 1 1 1
f 1 1 1
f 1 1 1
f 1 1 1
f 1 1 1
f 1 1 1
f 1 1 1
f 1 1 1
f 1 1 1
f 1 1 1
f 1 1 1
f 1 1 1
f 1 1 1
f 1 1 1
f 1 1 1
f 1 1 1
f 1 1 1
f 1 1 1
f 1 1 1
f 1 1 1
f 1 1 1
f 1 1 1
f 1 1 1
f 1 1 1
f 1 1 1
f 1 1 1
f 1 1 1
f 1 1 1
f 1 1 1
f 1 1 1
f 1 1 1
f 1 1 1
f 1 1 1
f 1 1 1
f 1 1 1
f 1 1 1
f 1 1 1
f 1 1 1
f 1 1 1
f 1 1 1
f 1 1 1
f 1 1 1
f 1 1 1
f 1 1 1
f 1 1 1
f 1 1 1
f 1 1 1
f 1 1 1
f 1 1 1
f 1 1 1
f 1 1 1
f 1 1 1
f 1 1 1
f 1 1 1
f 1 1 1
f 1 1 1
f 1 1 1
f 1 1 1
f 1 1 1
f 1 1 1
f 1 1 1
f 1 1 1
f 1 1 1
f 1 1 1
f 1 1 1
f 1 1 1
f 1 1 1
f 1 1 1
f 1 1 1
f 1 1 1
f 1 1 1
f 1 1 1
f 1 1 1
f 1 1 1
f 1 1 1
f 1 1 1
f 1 1 1
f 1 1 1
f 1 1 1
f 1 1 1
f 1 1 1
f 1 1 1
f 1 1 1
f 1 1 1
f 1 1 1
f 1 1 1
f 1 1 1
f 1 1 1
f 1 1 1
f 1 1 1
f 1 1 1
f 1 1 1
f 1 1 1
f 1 1 1
f 1 1 1
f 1 1 1
f 1 1 1
f 1 1 1
f 1 1 1
f 1 1 1
f 1 1 1
f 1 1 1
f 1 1 1
f 1 1 1
f 1 1 1
f 1 1 1
f 1 1 1
f 1 1 1
f 1 1 1
f 1 1 1
f 1 1 1
f 1 1 1
f 1 1 1
f 1 1 1
f 1 1 1
f 1 1 1
f 1 1 1
f 1 1 1
f 1 1 1
f 1 1 1
f 1 1 1
f 1 1 1
f 1 1 1
f 1 1 1
f 1 1 1
f 1 1 1
f 1 1 1
f 1 1 1
f 1 1 1
f 1 1 1
f 1 1 1
f 1 1 1
f 1 1 1
f 1 1 1
f 1 1 1
f 1 1 1
f 1 1 1
f 1 1 1
f 1 1 1
f 1 1 1
f 1 1 1
f 1 1 1
f 1 1 1
f 1 1 1
f 1 1 1
f 1 1 1
f 1 1 1
f 1 1 1
f 1 1 1
f 1 1 1
f 1 1 1
f 1 1 1
f 1 1 1
f 1 1 1
f 1 1 1
f 1 1 1
f 1 1 1
f 1 1 1
f 1 1 1
f 1 1 1
f 1 1 1
f 1 1 1
f 1 1 1
f 1 1 1
f 1 1 1
f 1 1 1
f 1 1 1
f 1 1 1
f 1 1 1
f 1 1 1
f 1 1 1
f 1 1 1
f 1 1 1
f 1 1 1
f 1 1 1
f 1 1 1
f 1 1 1
f 1 1 1
f 1 1 1
f 1 1 1
f 1 1 1
f 1 1 1
f 1 1 1
f 1 1 1
f 1 1 1
f 1 1 1
f 1 1 1
f 1 1 1
f 1 1 1
f 1 1 1
f 1 1 1
f 1 1 1
f 1 1 1
f 1 1 1
f 1 1 1
f 1 1 1
f 1 1 1
f 1 1 1
f 1 1 1
f 1 1 1
f 1 1 1
f 1 1 1
f 1 1 1
f 1 1 1
f 1 1 1
f 1 1 1
f 1 1 1
f 1 1 1
f 1 1 1
f 1 1 1
f 1 1 1
f 1 1 1
f 1 1 1
f 1 1 1
f 1 1 1
f 1 1 1
f 1 1 1
f 1 1 1
f 1 1 1
f 1 1 1
f 1 1 1
f 1 1 1
f 1 1 1
f 1 1 1
f 1 1 1
f 1 1 1
f 1 1 1
f 1 1 1
f 1 1 1
f 1 1 1
f 1 1 1
f 1 1 1
f 1 1 1
f 1 1 1
f 1 1 1
f 1 1 1
f 1 1 1
f 1 1 1
f 1 1 1
f 1 1 1
f 1 1 1
f 1 1 1
f 1 1 1
f 1 1 1
f 1 1 1
f 1 1 1
f 1 1 1
f 1 1 1
f 1 1 1
f 1 1 1
f 1 1 1
f 1 1 1
f 1 1 1
f 1 1 1
f 1 1 1
f 1 1 1
f 1 1 1
f 1 1 1
f 1 1 1
f 1 1 1
f 1 1 1
f 1 1 1
f 1 1 1
f 1 1 1
f 1 1 1
f 1 1 1
f 1 1 1
f 1 1 1
f 1 1 1
f 1 1 1
f 1 1 1
f 1 1 1
f 1 1 1
f 1 1 1
f 1 1 1
f 1 1 1
f 1 1 1
f 1 1 1
f 1 1 1
f 1 1 1
f 1 1 1
f 1 1 1
f 1 1 1
f 1 1 1
f 1 1 1
f 1 1 1
f 1 1 1
f 1 1 1
f 1 1 1
f 1 1 1
f 1 1 1
f 1 1 1
f 1 1 1
f 1 1 1
f 1 1 1
f 1 1 1
f 1 1 1
f 1 1 1
f 1 1 1
f 1 1 1
f 1 1 1
f 1 1 1
f 1 1 1
f 1 1 1
f 1 1 1
f 1 1 1
f 1 1 1
f 1 1 1
f 1 1 1
f 1 1 1
f 1 1 1
f 1 1 1
f 1 1 1
f 1 1 1
f 1 1 1
f 1 1 1
f 1 1 1
f 1 1 1
f 1 1 1
f 1 1 1
f 1 1 1
f 1 1 1
f 1 1 1
f 1 1 1
f 1 1 1
f 1 1 1
f 1 1 1
f 1 1 1
f 1 1 1
f 1 1 1
f 1 1 1
f 1 1 1
f 1 1 1
f 1 1 1
f 1 1 1
f 1 1 1
f 1 1 1
f 1 1 1
f 1 1 1
f 1 1 1
f 1 1 1
f 1 1 1
f 1 1 1
f 1 1 1
f 1 1 1
f 1 1 1
f 1 1 1
f 1 1 1
f 1 1 1
f 1 1 1
f 1 1 1
f 1 1 1
f 1 1 1
f 1 1 1
f 1 1 1
f 1 1 1
f 1 1 1
f 1 1 1
f 1 1 1
f 1 1 1
f 1 1 1
f 1 1 1
f 1 1 1
f 1 1 1
f 1 1 1
f 1 1 1
f 1 1 1
f 1 1 1
f 1 1 1
f 1 1 1
f 1 1 1
f 1 1 1
f 1 1 1
f 1 1 1
f 1 1 1
f 1 1 1
f 1 1 1
f 1 1 1
f 1 1 1
f 1 1 1
f 1 1 1
f 1 1 1
f 1 1 1
f 1 1 1
f 1 1 1
f 1 1 1
f 1 1 1
f 1 1 1
f 1 1 1
f 1 1 1
f 1 1 1
f 1 1 1
f 1 1 1
f 1 1 1
f 1 1 1
f 1 1 1
f 1 1 1
f 1 1 1
f 1 1 1
f 1 1 1
f 1 1 1
f 1 1 1
f 1 1 1
f 1 1 1
f 1 1 1
f 1 1 1
f 1 1 1
f 1 1 1
f 1 1 1
f 1 1 1
f 1 1 1
f 1 1 1
f 1 1 1
f 1 1 1
f 1 1 1
f 1 1 1
f 1 1 1
f 1 1 1
f 1 1 1
f 1 1 1
f 1 1 1
f 1 1 1
f 1 1 1
f 1 1 1
f 1 1 1
f 1 1 1
f 1 1 1
f 1 1 1
f 1 1 1
f 1 1 1
f 1 1 1
f 1 1 1
f 1 1 1
f 1 1 1
f 1 1 1
f 1 1 1
f 1 1 1
f 1 1 1
f 1 1 1
f 1 1 1
f 1 1 1
f 1 1 1
f 1 1 1
f 1 1 1
f 1 1 1
f 1 1 1
f 1 1 1
f 1 1 1
f 1 1 1
f 1 1 1
f 1 1 1
f 1 1 1
f 1 1 1
f 1 1 1
f 1 1 1
f 1 1 1
f 1 1 1
f 1 1 1
f 1 1 1
f 1 1 1
f 1 1 1
f 1 1 1
f 1 1 1
f 1 1 1
f 1 1 1
f 1 1 1
f 1 1 1
f 1 1 1
f 1 1 1
f 1 1 1
f 1 1 1
f 1 1 1
f 1 1 1
f 1 1 1
f 1 1 1
f 1 1 1
f 1 1 1
f 1 1 1
f 1 1 1
f 1 1 1
f 1 1 1
f 1 1 1
f 1 1 1
f 1 1 1
f 1 1 1
f 1 1 1
f 1 1 1
f 1 1 1
f 1 1 1
f 1 1 1
f 1 1 1
f 1 1 1
f 1 1 1
f 1 1 1
f 1 1 1
f 1 1 1
f 1 1 1
f 1 1 1
f 1 1 1
f 1 1 1
f 1 1 1
f 1 1 1
f 1 1 1
f 1 1 1
f 1 1 1
f 1 1 1
f 1 1 1
f 1 1 1
f 1 1 1
f 1 1 1
f 1 1 1
f 1 1 1
f 1 1 1
f 1 1 1
f 1 1 1
f 1 1 1
f 1 1 1
f 1 1 1
f 1 1 1
f 1 1 1
f 1 1 1
f 1 1 1
f 1 1 1
f 1 1 1
f 1 1 1
f 1 1 1
f 1 1 1
f 1 1 1
f 1 1 1
f 1 1 1
f 1 1 1
f 1 1 1
f 1 1 1
f 1 1 1
f 1 1 1
f 1 1 1
f 1 1 1
f 1 1 1
f 1 1 1
f 1 1 1
f 1 1 1
f 1 1 1
f 1 1 1
f 1 1 1
f 1 1 1
f 1 1 1
f 1 1 1
f 1 1 1
f 1 1 1
f 1 1 1
f 1 1 1
f 1 1 1
f 1 1 1
f 1 1 1
f 1 1 1
f 1 1 1
f 1 1 1
f 1 1 1
f 1 1 1
f 1 1 1
f 1 1 1
f 1 1 1
f 1 1 1
f 1 1 1
f 1 1 1
f 1 1 1
f 1 1 1
f 1 1 1
f 1 1 1
f 1 1 1
f 1 1 1
f 1 1 1
f 1 1 1
f 1 1 1
f 1 1 1
f 1 1 1
f 1 1 1
f 1 1 1
f 1 1 1
f 1 1 1
f 1 1 1
f 1 1 1
f 1 1 1
f 1 1 1
f 1 1 1
f 1 1 1
f 1 1 1
f 1 1 1
f 1 1 1
f 1 1 1
f 1 1 1
f 1 1 1
f 1 1 1
f 1 1 1
f 1 1 1
f 1 1 1
f 1 1 1
f 1 1 1
f 1 1 1
f 1 1 1
f 1 1 1
f 1 1 1
f 1 1 1
f 1 1 1
f 1 1 1
f 1 1 1
f 1 1 1
f 1 1 1
f 1 1 1
f 1 1 1
f 1 1 1
f 1 1 1
f 1 1 1
f 1 1 1
f 1 1 1
f 1 1 1
f 1 1 1
f 1 1 1
f 1 1 1
f 1 1 1
f 1 1 1
f 1 1 1
f 1 1 1
f 1 1 1
f 1 1 1
f 1 1 1
f 1 1 1
f 1 1 1
f 1 1 1
f 1 1 1
f 1 1 1
f 1 1 1
f 1 1 1
f 1 1 1
f 1 1 1
f 1 1 1
f 1 1 1
f 1 1 1
f 1 1 1
f 1 1 1
f 1 1 1
f 1 1 1
f 1 1 1
f 1 1 1
f 1 1 1
f 1 1 1
f 1 1 1
f 1 1 1
f 1 1 1
f 1 1 1
f 1 1 1
f 1 1 1
f 1 1 1
f 1 1 1
f 1 1 1
f 1 1 1
f 1 1 1
f 1 1 1
f 1 1 1
f 1 1 1
f 1 1 1
f 1 1 1
f 1 1 1
f 1 1 1
f 1 1 1
f 1 1 1
f 1 1 1
f 1 1 1
f 1 1 1
f 1 1 1
f 1 1 1
f 1 1 1
f 1 1 1
f 1 1 1
f 1 1 1
f 1 1 1
f 1 1 1
f 1 1 1
f 1 1 1
f 1 1 1
f 1 1 1
f 1 1 1
f 1 1 1
f 1 1 1
f 1 1 1
f 1 1 1
f 1 1 1
f 1 1 1
f 1 1 1
f 1 1 1
f 1 1 1
f 1 1 1
f 1 1 1
f 1 1 1
f 1 1 1
f 1 1 1
f 1 1 1
f 1 1 1
f 1 1 1
f 1 1 1
f 1 1 1
f 1 1 1
f 1 1 1
f 1 1 1
f 1 1 1
f 1 1 1
f 1 1 1
f 1 1 1
f 1 1 1
f 1 1 1
f 1 1 1
f 1 1 1
f 1 1 1
f 1 1 1
f 1 1 1
f 1 1 1
f 1 1 1
f 1 1 1
f 1 1 1
f 1 1 1
f 1 1 1
f 1 1 1
f 1 1 1
f 1 1 1
f 1 1 1
f 1 1 1
f 1 1 1
f 1 1 1
f 1 1 1
f 1 1 1
f 1 1 1
f 1 1 1
f 1 1 1
f 1 1 1
f 1 1 1
f 1 1 1
f 1 1 1
f 1 1 1
f 1 1 1
f 1 1 1
f 1 1 1
f 1 1 1
f 1 1 1
f 1 1 1
f 1 1 1
f 1 1 1
f 1 1 1
f 1 1 1
f 1 1 1
f 1 1 1
f 1 1 1
f 1 1 1
f 1 1 1
f 1 1 1
f 1 1 1
f 1 1 1
f 1 1 1
f 1 1 1
f 1 1 1
f 1 1 1
f 1 1 1
f 1 1 1
f 1 1 1
f 1 1 1
f 1 1 1
f 1 1 1
f 1 1 1
f 1 1 1
f 1 1 1
f 1 1 1
f 1 1 1
f 1 1 1
f 1 1 1
f 1 1 1
f 1 1 1
f 1 1 1
f 1 1 1
f 1 1 1
f 1 1 1
f 1 1 1
f 1 1 1
f 1 1 1
f 1 1 1
f 1 1 1
f 1 1 1
f 1 1 1
f 1 1 1
f 1 1 1
f 1 1 1
f 1 1 1
f 1 1 1
f 1 1 1
f 1 1 1
f 1 1 1
f 1 1 1
f 1 1 1
f 1 1 1
f 1 1 1
f 1 1 1
f 1 1 1
f 1 1 1
f 1 1 1
f 1 1 1
f 1 1 1
f 1 1 1
f 1 1 1
f 1 1 1
f 1 1 1
f 1 1 1
f 1 1 1
f 1 1 1
f 1 1 1
f 1 1 1
f 1 1 1
f 1 1 1
f 1 1 1
f 1 1 1
f 1 1 1
f 1 1 1
f 1 1 1
f 1 1 1
f 1 1 1
f 1 1 1
f 1 1 1
f 1 1 1
f 1 1 1
f 1 1 1
f 1 1 1
f 1 1 1
f 1 1 1
f 1 1 1
f 1 1 1
f 1 1 1
f 1 1 1
f 1 1 1
f 1 1 1
f 1 1 1
f 1 1 1
f 1 1 1
f 1 1 1
f 1 1 1
f 1 1 1
f 1 1 1
f 1 1 1
f 1 1 1
f 1 1 1
f 1 1 1
f 1 1 1
f 1 1 1
f 1 1 1
f 1 1 1
f 1 1 1
f 1 1 1
f 1 1 1
f 1 1 1
f 1 1 1
f 1 1 1
f 1 1 1
f 1 1 1
f 1 1 1
f 1 1 1
f 1 1 1
f 1 1 1
f 1 1 1
f 1 1 1
f 1 1 1
f 1 1 1
f 1 1 1
f 1 1 1
f 1 1 1
f 1 1 1
f 1 1 1
f 1 1 1
f 1 1 1
f 1 1 1
f 1 1 1
f 1 1 1
f 1 1 1
f 1 1 1
f 1 1 1
f 1 1 1
f 1 1 1
f 1 1 1
f 1 1 1
f 1 1 1
f 1 1 1
f 1 1 1
f 1 1 1
f 1 1 1
f 1 1 1
f 1 1 1
f 1 1 1
f 1 1 1
f 1 1 1
f 1 1 1
f 1 1 1
f 1 1 1
f 1 1 1
f 1 1 1
f 1 1 1
f 1 1 1
f 1 1 1
f 1 1 1
f 1 1 1
f 1 1 1
f 1 1 1
f 1 1 1
f 1 1 1
f 1 1 1
f 1 1 1
f 1 1 1
f 1 1 1
f 1 1 1
f 1 1 1
f 1 1 1
f 1 1 1
f 1 1 1
f 1 1 1
f 1 1 1
f 1 1 1
f 1 1 1
f 1 1 1
f 1 1 1
f 1 1 1
f 1 1 1
f 1 1 1
f 1 1 1
f 1 1 1
f 1 1 1
f 1 1 1
f 1 1 1
f 1 1 1
f 1 1 1
f 1 1 1
f 1 1 1
f 1 1 1
f 1 1 1
f 1 1 1
f 1 1 1
f 1 1 1
f 1 1 1
f 1 1 1
f 1 1 1
f 1 1 1
f 1 1 1
f 1 1 1
f 1 1 1
f 1 1 1
f 1 1 1
f 1 1 1
f 1 1 1
f 1 1 1
f 1 1 1
f 1 1 1
f 1 1 1
f 1 1 1
f 1 1 1
f 1 1 1
f 1 1 1
f 1 1 1
f 1 1 1
f 1 1 1
f 1 1 1
f 1 1 1
f 1 1 1
f 1 1 1
f 1 1 1
f 1 1 1
f 1 1 1
f 1 1 1
f 1 1 1
f 1 1 1
f 1 1 1
f 1 1 1
f 1 1 1
f 1 1 1
f 1 1 1
f 1 1 1
f 1 1 1
f 1 1 1
f 1 1 1
f 1 1 1
f 1 1 1
f 1 1 1
f 1 1 1
f 1 1 1
f 1 1 1
f 1 1 1
f 1 1 1
f 1 1 1
f 1 1 1
f 1 1 1
f 1 1 1
f 1 1 1
f 1 1 1
f 1 1 1
f 1 1 1
f 1 1 1
f 1 1 1
f 1 1 1
f 1 1 1
f 1 1 1
f 1 1 1
f 1 1 1
f 1 1 1
f 1 1 1
f 1 1 1
f 1 1 1
f 1 1 1
f 1 1 1
f 1 1 1
f 1 1 1
f 1 1 1
f 1 1 1
f 1 1 1
f 1 1 1
f 1 1 1
f 1 1 1
f 1 1 1
f 1 1 1
f 1 1 1
f 1 1 1
f 1 1 1
f 1 1 1
f 1 1 1
f 1 1 1
f 1 1 1
f 1 1 1
f 1 1 1
f 1 1 1
f 1 1 1
f 1 1 1
f 1 1 1
f 1 1 1
f 1 1 1
f 1 1 1
f 1 1 1
f 1 1 1
f 1 1 1
f 1 1 1
f 1 1 1
f 1 1 1
f 1 1 1
f 1 1 1
f 1 1 1
f 1 1 1
f 1 1 1
f 1 1 1
f 1 1 1
f 1 1 1
f 1 1 1
f 1 1 1
f 1 1 1
f 1 1 1
f 1 1 1
f 1 1 1
f 1 1 1
f 1 1 1
f 1 1 1
f 1 1 1
f 1 1 1
f 1 1 1
f 1 1 1
f 1 1 1
f 1 1 1
f 1 1 1
f 1 1 1
f 1 1 1
f 1 1 1
f 1 1 1
f 1 1 1
f 1 1 1
f 1 1 1
f 1 1 1
f 1 1 1
f 1 1 1
f 1 1 1
f 1 1 1
f 1 1 1
f 1 1 1
f 1 1 1
f 1 1 1
f 1 1 1
f 1 1 1
f 1 1 1
f 1 1 1
f 1 1 1
f 1 1 1
f 1 1 1
f 1 1 1
f 1 1 1
f 1 1 1
f 1 1 1
f 1 1 1
f 1 1 1
f 1 1 1
f 1 1 1
f 1 1 1
f 1 1 1
f 1 1 1
f 1 1 1
f 1 1 1
f 1 1 1
f 1 1 1
f 1 1 1
f 1 1 1
f 1 1 1
f 1 1 1
f 1 1 1
f 1 1 1
f 1 1 1
f 1 1 1
f 1 1 1
f 1 1 1
f 1 1 1
f 1 1 1
f 1 1 1
f 1 1 1
f 1 1 1
f 1 1 1
f 1 1 1
f 1 1 1
f 1 1 1
f 1 1 1
f 1 1 1
f 1 1 1
f 1 1 1
f 1 1 1
f 1 1 1
f 1 1 1
f 1 1 1
f 1 1 1
f 1 1 1
f 1 1 1
f 1 1 1
f 1 1 1
f 1 1 1
f 1 1 1
f 1 1 1
f 1 1 1
f 1 1 1
f 1 1 1
f 1 1 1
f 1 1 1
f 1 1 1
f 1 1 1
f 1 1 1
f 1 1 1
f 1 1 1
f 1 1 1
f 1 1 1
f 1 1 1
f 1 1 1
f 1 1 1
f 1 1 1
f 1 1 1
f 1 1 1
f 1 1 1
f 1 1 1
f 1 1 1
f 1 1 1
f 1 1 1
f 1 1 1
f 1 1 1
f 1 1 1
f 1 1 1
f 1 1 1
f 1 1 1
f 1 1 1
f 1 1 1
f 1 1 1
f 1 1 1
f 1 1 1
f 1 1 1
f 1 1 1
f 1 1 1
f 1 1 1
f 1 1 1
f 1 1 1
f 1 1 1
f 1 1 1
f 1 1 1
f 1 1 1
f 1 1 1
f 1 1 1
f 1 1 1
f 1 1 1
f 1 1 1
f 1 1 1
f 1 1 1
f 1 1 1
f 1 1 1
f 1 1 1
f 1 1 1
f 1 1 1
f 1 1 1
f 1 1 1
f 1 1 1
f 1 1 1
f 1 1 1
f 1 1 1
f 1 1 1
f 1 1 1
f 1 1 1
f 1 1 1
f 1 1 1
f 1 1 1
f 1 1 1
f 1 1 1
f 1 1 1
f 1 1 1
f 1 1 1
f 1 1 1
f 1 1 1
f 1 1 1
f 1 1 1
f 1 1 1
f 1 1 1
f 1 1 1
f 1 1 1
f 1 1 1
f 1 1 1
f 1 1 1
f 1 1 1
f 1 1 1
f 1 1 1
f 1 1 1
f 1 1 1
f 1 1 1
f 1 1 1
f 1 1 1
f 1 1 1
f 1 1 1
f 1 1 1
f 1 1 1
f 1 1 1
f 1 1 1
f 1 1 1
f 1 1 1
f 1 1 1
f 1 1 1
f 1 1 1
f 1 1 1
f 1 1 1
f 1 1 1
f 1 1 1
f 1 1 1
f 1 1 1
f 1 1 1
f 1 1 1
f 1 1 1
f 1 1 1
f 1 1 1
f 1 1 1
f 1 1 1
f 1 1 1
f 1 1 1
f 1 1 1
f 1 1 1
f 1 1 1
f 1 1 1
f 1 1 1
f 1 1 1
f 1 1 1
f 1 1 1
f 1 1 1
f 1 1 1
f 1 1 1
f 1 1 1
f 1 1 1
f 1 1 1
f 1 1 1
f 1 1 1
f 1 1 1
f 1 1 1
f 1 1 1
f 1 1 1
f 1 1 1
f 1 1 1
f 1 1 1
f 1 1 1
f 1 1 1
f 1 1 1
f 1 1 1
f 1 1 1
f 1 1 1
f 1 1 1
f 1 1 1
f 1 1 1
f 1 1 1
f 1 1 1
f 1 1 1
f 1 1 1
f 1 1 1
f 1 1 1
f 1 1 1
f 1 1 1
f 1 1 1
f 1 1 1
f 1 1 1
f 1 1 1
f 1 1 1
f 1 1 1
f 1 1 1
f 1 1 1
f 1 1 1
f 1 1 1
f 1 1 1
f 1 1 1
f 1 1 1
f 1 1 1
f 1 1 1
f 1 1 1
f 1 1 1
f 1 1 1
f 1 1 1
f 1 1 1
f 1 1 1
f 1 1 1
f 1 1 1
f 1 1 1
f 1 1 1
f 1 1 1
f 1 1 1
f 1 1 1
f 1 1 1
f 1 1 1
f 1 1 1
f 1 1 1
f 1 1 1
f 1 1 1
f 1 1 1
f 1 1 1
f 1 1 1
f 1 1 1
f 1 1 1
f 1 1 1
f 1 1 1
f 1 1 1
f 1 1 1
f 1 1 1
f 1 1 1
f 1 1 1
f 1 1 1
f 1 1 1
f 1 1 1
f 1 1 1
f 1 1 1
f 1 1 1
f 1 1 1
f 1 1 1
f 1 1 1
f 1 1 1
f 1 1 1
f 1 1 1
f 1 1 1
f 1 1 1
f 1 1 1
f 1 1 1
f 1 1 1
f 1 1 1
f 1 1 1
f 1 1 1
f 1 1 1
f 1 1 1
f 1 1 1
f 1 1 1
f 1 1 1
f 1 1 1
f 1 1 1
f 1 1 1
f 1 1 1
f 1 1 1
f 1 1 1
f 1 1 1
f 1 1 1
f 1 1 1
f 1 1 1
f 1 1 1
f 1 1 1
f 1 1 1
f 1 1 1
f 1 1 1
f 1 1 1
f 1 1 1
f 1 1 1
f 1 1 1
f 1 1 1
f 1 1 1
f 1 1 1
f 1 1 1
f 1 1 1
f 1 1 1
f 1 1 1
f 1 1 1
f 1 1 1
f 1 1 1
f 1 1 1
f 1 1 1
f 1 1 1
f 1 1 1
f 1 1 1
f 1 1 1
f 1 1 1
f 1 1 1
f 1 1 1
f 1 1 1
f 1 1 1
f 1 1 1
f 1 1 1
f 1 1 1
f 1 1 1
f 1 1 1
f 1 1 1
f 1 1 1
f 1 1 1
f 1 1 1
f 1 1 1
f 1 1 1
f 1 1 1
f 1 1 1
f 1 1 1
f 1 1 1
f 1 1 1
f 1 1 1
f 1 1 1
f 1 1 1
f 1 1 1
f 1 1 1
f 1 1 1
f 1 1 1
f 1 1 1
f 1 1 1
f 1 1 1
f 1 1 1
f 1 1 1
f 1 1 1
f 1 1 1
f 1 1 1
f 1 1 1
f 1 1 1
f 1 1 1
f 1 1 1
f 1 1 1
f 1 1 1
f 1 1 1
f 1 1 1
f 1 1 1
f 1 1 1
f 1 1 1
f 1 1 1
f 1 1 1
f 1 1 1
f 1 1 1
f 1 1 1
f 1 1 1
f 1 1 1
f 1 1 1
f 1 1 1
f 1 1 1
f 1 1 1
f 1 1 1
f 1 1 1
f 1 1 1
f 1 1 1
f 1 1 1
f 1 1 1
f 1 1 1
f 1 1 1
f 1 1 1
f 1 1 1
f 1 1 1
f 1 1 1
f 1 1 1
f 1 1 1
f 1 1 1
f 1 1 1
f 1 1 1
f 1 1 1
f 1 1 1
f 1 1 1
f 1 1 1
f 1 1 1
f 1 1 1
f 1 1 1
f 1 1 1
f 1 1 1
f 1 1 1
f 1 1 1
f 1 1 1
f 1 1 1
f 1 1 1
f 1 1 1
f 1 1 1
f 1 1 1
f 1 1 1
f 1 1 1
f 1 1 1
f 1 1 1
f 1 1 1
f 1 1 1
f 1 1 1
f 1 1 1
f 1 1 1
f 1 1 1
f 1 1 1
f 1 1 1
f 1 1 1
f 1 1 1
f 1 1 1
f 1 1 1
f 1 1 1
f 1 1 1
f 1 1 1
f 1 1 1
f 1 1 1
f 1 1 1
f 1 1 1
f 1 1 1
f 1 1 1
f 1 1 1
f 1 1 1
f 1 1 1
f 1 1 1
f 1 1 1
f 1 1 1
f 1 1 1
f 1 1 1
f 1 1 1
f 1 1 1
f 1 1 1
f 1 1 1
f 1 1 1
f 1 1 1
f 1 1 1
f 1 1 1
f 1 1 1
f 1 1 1
f 1 1 1
f 1 1 1
f 1 1 1
f 1 1 1
f 1 1 1
f 1 1 1
f 1 1 1
f 1 1 1
f 1 1 1
f 1 1 1
f 1 1 1
f 1 1 1
f 1 1 1
f 1 1 1
f 1 1 1
f 1 1 1
f 1 1 1
f 1 1 1
f 1 1 1
f 1 1 1
f 1 1 1
f 1 1 1
f 1 1 1
f 1 1 1
f 1 1 1
f 1 1 1
f 1 1 1
f 1 1 1
f 1 1 1
f 1 1 1
f 1 1 1
f 1 1 1
f 1 1 1
f 1 1 1
f 1 1 1
f 1 1 1
f 1 1 1
f 1 1 1
f 1 1 1
f 1 1 1
f 1 1 1
f 1 1 1
f 1 1 1
f 1 1 1
f 1 1 1
f 1 1 1
f 1 1 1
f 1 1 1
f 1 1 1
f 1 1 1
f 1 1 1
f 1 1 1
f 1 1 1
f 1 1 1
f 1 1 1
f 1 1 1
f 1 1 1
f 1 1 1
f 1 1 1
f 1 1 1
f 1 1 1
f 1 1 1
f 1 1 1
f 1 1 1
f 1 1 1
f 1 1 1
f 1 1 1
f 1 1 1
f 1 1 1
f 1 1 1
f 1 1 1
f 1 1 1
f 1 1 1
f 1 1 1
f 1 1 1
f 1 1 1
f 1 1 1
f 1 1 1
f 1 1 1
f 1 1 1
f 1 1 1
f 1 1 1
f 1 1 1
f 1 1 1
f 1 1 1
f 1 1 1
f 1 1 1
f 1 1 1
f 1 1 1
f 1 1 1
f 1 1 1
f 1 1 1
f 1 1 1
f 1 1 1
f 1 1 1
f 1 1 1
f 1 1 1
f 1 1 1
f 1 1 1
f 1 1 1
f 1 1 1
f 1 1 1
f 1 1 1
f 1 1 1
f 1 1 1
f 1 1 1
f 1 1 1
f 1 1 1
f 1 1 1
f 1 1 1
f 1 1 1
f 1 1 1
f 1 1 1
f 1 1 1
f 1 1 1
f 1 1 1
f 1 1 1
f 1 1 1
f 1 1 1
f 1 1 1
f 1 1 1
f 1 1 1
f 1 1 1
f 1 1 1
f 1 1 1
f 1 1 1
f 1 1 1
f 1 1 1
f 1 1 1
f 1 1 1
f 1 1 1
f 1 1 1
f 1 1 1
f 1 1 1
f 1 1 1
f 1 1 1
f 1 1 1
f 1 1 1
f 1 1 1
f 1 1 1
f 1 1 1
f 1 1 1
f 1 1 1
f 1 1 1
f 1 1 1
f 1 1 1
f 1 1 1
f 1 1 1
f 1 1 1
f 1 1 1
f 1 1 1
f 1 1 1
f 1 1 1
f 1 1 1
f 1 1 1
f 1 1 1
f 1 1 1
f 1 1 1
f 1 1 1
f 1 1 1
f 1 1 1
f 1 1 1
f 1 1 1
f 1 1 1
f 1 1 1
f 1 1 1
f 1 1 1
f 1 1 1
f 1 1 1
f 1 1 1
f 1 1 1
f 1 1 1
f 1 1 1
f 1 1 1
f 1 1 1
f 1 1 1
f 1 1 1
f 1 1 1
f 1 1 1
f 1 1 1
f 1 1 1
f 1 1 1
f 1 1 1
f 1 1 1
f 1 1 1
f 1 1 1
f 1 1 1
f 1 1 1
f 1 1 1
f 1 1 1
f 1 1 1
f 1 1 1
f 1 1 1
f 1 1 1
f 1 1 1
f 1 1 1
f 1 1 1
f 1 1 1
f 1 1 1
f 1 1 1
f 1 1 1
f 1 1 1
f 1 1 1
f 1 1 1
f 1 1 1
f 1 1 1
f 1 1 1
f 1 1 1
f 1 1 1
f 1 1 1
f 1 1 1
f 1 1 1
f 1 1 1
f 1 1 1
f 1 1 1
f 1 1 1
f 1 1 1
f 1 1 1
f 1 1 1
f 1 1 1
f 1 1 1
f 1 1 1
f 1 1 1
f 1 1 1
f 1 1 1
f 1 1 1
f 1 1 1
f 1 1 1
f 1 1 1
f 1 1 1
f 1 1 1
f 1 1 1
f 1 1 1
f 1 1 1
f 1 1 1
f 1 1 1
f 1 1 1
f 1 1 1
f 1 1 1
f 1 1 1
f 1 1 1
f 1 1 1
f 1 1 1
f 1 1 1
f 1 1 1
f 1 1 1
f 1 1 1
f 1 1 1
f 1 1 1
f 1 1 1
f 1 1 1
f 1 1 1
f 1 1 1
f 1 1 1
f 1 1 1
f 1 1 1
f 1 1 1
f 1 1 1
f 1 1 1
f 1 1 1
f 1 1 1
f 1 1 1
f 1 1 1
f 1 1 1
f 1 1 1
f 1 1 1
f 1 1 1
f 1 1 1
f 1 1 1
f 1 1 1
f 1 1 1
f 1 1 1
f 1 1 1
f 1 1 1
f 1 1 1
f 1 1 1
f 1 1 1
f 1 1 1
f 1 1 1
f 1 1 1
f 1 1 1
f 1 1 1
f 1 1 1
f 1 1 1
f 1 1 1
f 1 1 1
f 1 1 1
f 1 1 1
f 1 1 1
f 1 1 1
f 1 1 1
f 1 1 1
f 1 1 1
f 1 1 1
f 1 1 1
f 1 1 1
f 1 1 1
f 1 1 1
f 1 1 1
f 1 1 1
f 1 1 1
f 1 1 1
f 1 1 1
f 1 1 1
f 1 1 1
f 1 1 1
f 1 1 1
f 1 1 1
f 1 1 1
f 1 1 1
f 1 1 1
f 1 1 1
f 1 1 1
f 1 1 1
f 1 1 1
f 1 1 1
f 1 1 1
f 1 1 1
f 1 1 1
f 1 1 1
f 1 1 1
f 1 1 1
f 1 1 1
f 1 1 1
f 1 1 1
f 1 1 1
f 1 1 1
f 1 1 1
f 1 1 1
f 1 1 1
f 1 1 1
f 1 1 1
f 1 1 1
f 1 1 1
f 1 1 1
f 1 1 1
f 1 1 1
f 1 1 1
f 1 1 1
f 1 1 1
f 1 1 1
f 1 1 1
f 1 1 1
f 1 1 1
f 1 1 1
f 1 1 1
f 1 1 1
f 1 1 1
f 1 1 1
f 1 1 1
f 1 1 1
f 1 1 1
f 1 1 1
f 1 1 1
f 1 1 1
f 1 1 1
f 1 1 1
f 1 1 1
f 1 1 1
f 1 1 1
f 1 1 1
f 1 1 1
f 1 1 1
f 1 1 1
f 1 1 1
f 1 1 1
f 1 1 1
f 1 1 1
f 1 1 1
f 1 1 1
f 1 1 1
f 1 1 1
f 1 1 1
f 1 1 1
f 1 1 1
f 1 1 1
f 1 1 1
f 1 1 1
f 1 1 1
f 1 1 1
f 1 1 1
f 1 1 1
f 1 1 1
f 1 1 1
f 1 1 1
f 1 1 1
f 1 1 1
f 1 1 1
f 1 1 1
f 1 1 1
f 1 1 1
f 1 1 1
f 1 1 1
f 1 1 1
f 1 1 1
f 1 1 1
f 1 1 1
f 1 1 1
f 1 1 1
f 1 1 1
f 1 1 1
f 1 1 1
f 1 1 1
f 1 1 1
f 1 1 1
f 1 1 1
f 1 1 1
f 1 1 1
f 1 1 1
f 1 1 1
f 1 1 1
f 1 1 1
f 1 1 1
f 1 1 1
f 1 1 1
f 1 1 1
f 1 1 1
f 1 1 1
f 1 1 1
f 1 1 1
f 1 1 1
f 1 1 1
f 1 1 1
f 1 1 1
f 1 1 1
f 1 1 1
f 1 1 1
f 1 1 1
f 1 1 1
f 1 1 1
f 1 1 1
f 1 1 1
f 1 1 1
f 1 1 1
f 1 1 1
f 1 1 1
f 1 1 1
f 1 1 1
f 1 1 1
f 1 1 1
f 1 1 1
f 1 1 1
f 1 1 1
f 1 1 1
f 1 1 1
f 1 1 1
f 1 1 1
f 1 1 1
f 1 1 1
f 1 1 1
f 1 1 1
f 1 1 1
f 1 1 1
f 1 1 1
f 1 1 1
f 1 1 1
f 1 1 1
f 1 1 1
f 1 1 1
f 1 1 1
f 1 1 1
f 1 1 1
f 1 1 1
f 1 1 1
f 1 1 1
f 1 1 1
f 1 1 1
f 1 1 1
f 1 1 1
f 1 1 1
f 1 1 1
f 1 1 1
f 1 1 1
f 1 1 1
f 1 1 1
f 1 1 1
f 1 1 1
f 1 1 1
f 1 1 1
f 1 1 1
f 1 1 1
f 1 1 1
f 1 1 1
f 1 1 1
f 1 1 1
f 1 1 1
f 1 1 1
f 1 1 1
f 1 1 1
f 1 1 1
f 1 1 1
f 1 1 1
f 1 1 1
f 1 1 1
f 1 1 1
f 1 1 1
f 1 1 1
f 1 1 1
f 1 1 1
f 1 1 1
f 1 1 1
f 1 1 1
f 1 1 1
f 1 1 1
f 1 1 1
f 1 1 1
f 1 1 1
f 1 1 1
f 1 1 1
f 1 1 1
f 1 1 1
f 1 1 1
f 1 1 1
f 1 1 1
f 1 1 1
f 1 1 1
f 1 1 1
f 1 1 1
f 1 1 1
f 1 1 1
f 1 1 1
f 1 1 1
f 1 1 1
f 1 1 1
f 1 1 1
f 1 1 1
f 1 1 1
f 1 1 1
f 1 1 1
f 1 1 1
f 1 1 1
f 1 1 1
f 1 1 1
f 1 1 1
f 1 1 1
f 1 1 1
f 1 1 1
f 1 1 1
f 1 1 1
f 1 1 1
f 1 1 1
f 1 1 1
f 1 1 1
f 1 1 1
f 1 1 1
f 1 1 1
f 1 1 1
f 1 1 1
f 1 1 1
f 1 1 1
f 1 1 1
f 1 1 1
f 1 1 1
f 1 1 1
f 1 1 1
f 1 1 1
f 1 1 1
f 1 1 1
f 1 1 1
f 1 1 1
f 1 1 1
f 1 1 1
f 1 1 1
f 1 1 1
f 1 1 1
f 1 1 1
f 1 1 1
f 1 1 1
f 1 1 1
f 1 1 1
f 1 1 1
f 1 1 1
f 1 1 1
f 1 1 1
f 1 1 1
f 1 1 1
f 1 1 1
f 1 1 1
f 1 1 1
f 1 1 1
f 1 1 1
f 1 1 1
f 1 1 1
f 1 1 1
f 1 1 1
f 1 1 1
f 1 1 1
f 1 1 1
f 1 1 1
f 1 1 1
f 1 1 1
f 1 1 1
f 1 1 1
f 1 1 1
f 1 1 1
f 1 1 1
f 1 1 1
f 1 1 1
f 1 1 1
f 1 1 1
f 1 1 1
f 1 1 1
f 1 1 1
f 1 1 1
f 1 1 1
f 1 1 1
f 1 1 1
f 1 1 1
f 1 1 1
f 1 1 1
f 1 1 1
f 1 1 1
f 1 1 1
f 1 1 1
f 1 1 1
f 1 1 1
f 1 1 1
f 1 1 1
f 1 1 1
f 1 1 1
f 1 1 1
f 1 1 1
f 1 1 1
f 1 1 1
f 1 1 1
f 1 1 1
f 1 1 1
f 1 1 1
f 1 1 1
f 1 1 1
f 1 1 1
f 1 1 1
f 1 1 1
f 1 1 1
f 1 1 1
f 1 1 1
f 1 1 1
f 1 1 1
f 1 1 1
f 1 1 1
f 1 1 1
f 1 1 1
f 1 1 1
f 1 1 1
f 1 1 1
f 1 1 1
f 1 1 1
f 1 1 1
f 1 1 1
f 1 1 1
f 1 1 1
f 1 1 1
f 1 1 1
f 1 1 1
f 1 1 1
f 1 1 1
f 1 1 1
f 1 1 1
f 1 1 1
f 1 1 1
f 1 1 1
f 1 1 1
f 1 1 1
f 1 1 1
f 1 1 1
f 1 1 1
f 1 1 1
f 1 1 1
f 1 1 1
f 1 1 1
f 1 1 1
f 1 1 1
f 1 1 1
f 1 1 1
f 1 1 1
f 1 1 1
f 1 1 1
f 1 1 1
f 1 1 1
f 1 1 1
f 1 1 1
f 1 1 1
f 1 1 1
f 1 1 1
f 1 1 1
f 1 1 1
f 1 1 1
f 1 1 1
f 1 1 1
f 1 1 1
f 1 1 1
f 1 1 1
f 1 1 1
f 1 1 1
f 1 1 1
f 1 1 1
f 1 1 1
f 1 1 1
f 1 1 1
f 1 1 1
f 1 1 1
f 1 1 1
f 1 1 1
f 1 1 1
f 1 1 1
f 1 1 1
f 1 1 1
f 1 1 1
f 1 1 1
f 1 1 1
f 1 1 1
f 1 1 1
f 1 1 1
f 1 1 1
f 1 1 1
f 1 1 1
f 1 1 1
f 1 1 1
f 1 1 1
f 1 1 1
f 1 1 1
f 1 1 1
f 1 1 1
f 1 1 1
f 1 1 1
f 1 1 1
f 1 1 1
f 1 1 1
f 1 1 1
f 1 1 1
f 1 1 1
f 1 1 1
f 1 1 1
f 1 1 1
f 1 1 1
f 1 1 1
f 1 1 1
f 1 1 1
f 1 1 1
f 1 1 1
f 1 1 1
f 1 1 1
f 1 1 1
f 1 1 1
f 1 1 1
f 1 1 1
f 1 1 1
f 1 1 1
f 1 1 1
f 1 1 1
f 1 1 1
f 1 1 1
f 1 1 1
f 1 1 1
f 1 1 1
f 1 1 1
f 1 1 1
f 1 1 1
f 1 1 1
f 1 1 1
f 1 1 1
f 1 1 1
f 1 1 1
f 1 1 1
f 1 1 1
f 1 1 1
f 1 1 1
f 1 1 1
f 1 1 1
f 1 1 1
f 1 1 1
f 1 1 1
f 1 1 1
f 1 1 1
f 1 1 1
f 1 1 1
f 1 1 1
f 1 1 1
f 1 1 1
f 1 1 1
f 1 1 1
f 1 1 1
f 1 1 1
f 1 1 1
f 1 1 1
f 1 1 1
f 1 1 1
f 1 1 1
f 1 1 1
f 1 1 1
f 1 1 1
f 1 1 1
f 1 1 1
f 1 1 1
f 1 1 1
f 1 1 1
f 1 1 1
f 1 1 1
f 1 1 1
f 1 1 1
f 1 1 1
f 1 1 1
f 1 1 1
f 1 1 1
f 1 1 1
f 1 1 1
f 1 1 1
f 1 1 1
f 1 1 1
f 1 1 1
f 1 1 1
f 1 1 1
f 1 1 1
f 1 1 1
f 1 1 1
f 1 1 1
f 1 1 1
f 1 1 1
f 1 1 1
f 1 1 1
f 1 1 1
f 1 1 1
f 1 1 1
f 1 1 1
f 1 1 1
f 1 1 1
f 1 1 1
f 1 1 1
f 1 1 1
f 1 1 1
f 1 1 1
f 1 1 1
f 1 1 1
f 1 1 1
f 1 1 1
f 1 1 1
f 1 1 1
f 1 1 1
f 1 1 1
f 1 1 1
f 1 1 1
f 1 1 1
f 1 1 1
f 1 1 1
f 1 1 1
f 1 1 1
f 1 1 1
f 1 1 1
f 1 1 1
f 1 1 1
f 1 1 1
f 1 1 1
f 1 1 1
f 1 1 1
f 1 1 1
f 1 1 1
f 1 1 1
f 1 1 1
f 1 1 1
f 1 1 1
f 1 1 1
f 1 1 1
f 1 1 1
f 1 1 1
f 1 1 1
f 1 1 1
f 1 1 1
f 1 1 1
f 1 1 1
f 1 1 1
f 1 1 1
f 1 1 1
f 1 1 1
f 1 1 1
f 1 1 1
f 1 1 1
f 1 1 1
f 1 1 1
f 1 1 1
f 1 1 1
f 1 1 1
f 1 1 1
f 1 1 1
f 1 1 1
f 1 1 1
f 1 1 1
f 1 1 1
f 1 1 1
f 1 1 1
f 1 1 1
f 1 1 1
f 1 1 1
f 1 1 1
f 1 1 1
f 1 1 1
f 1 1 1
f 1 1 1
f 1 1 1
f 1 1 1
f 1 1 1
f 1 1 1
f 1 1 1
f 1 1 1
f 1 1 1
f 1 1 1
f 1 1 1
f 1 1 1
f 1 1 1
f 1 1 1
f 1 1 1
f 1 1 1
f 1 1 1
f 1 1 1
f 1 1 1
f 1 1 1
f 1 1 1
f 1 1 1
f 1 1 1
f 1 1 1
f 1 1 1
f 1 1 1
f 1 1 1
f 1 1 1
f 1 1 1
f 1 1 1
f 1 1 1
f 1 1 1
f 1 1 1
f 1 1 1
f 1 1 1
f 1 1 1
f 1 1 1
f 1 1 1
f 1 1 1
f 1 1 1
f 1 1 1
f 1 1 1
f 1 1 1
f 1 1 1
f 1 1 1
f 1 1 1
f 1 1 1
f 1 1 1
f 1 1 1
f 1 1 1
f 1 1 1
f 1 1 1
f 1 1 1
f 1 1 1
f 1 1 1
f 1 1 1
f 1 1 1
f 1 1 1
f 1 1 1
f 1 1 1
f 1 1 1
f 1 1 1
f 1 1 1
f 1 1 1
f 1 1 1
f 1 1 1
f 1 1 1
f 1 1 1
f 1 1 1
f 1 1 1
f 1 1 1
f 1 1 1
f 1 1 1
f 1 1 1
f 1 1 1
f 1 1 1
f 1 1 1
f 1 1 1
f 1 1 1
f 1 1 1
f 1 1 1
f 1 1 1
f 1 1 1
f 1 1 1
f 1 1 1
f 1 1 1
f 1 1 1
f 1 1 1
f 1 1 1
f 1 1 1
f 1 1 1
f 1 1 1
f 1 1 1
f 1 1 1
f 1 1 1
f 1 1 1
f 1 1 1
f 1 1 1
f 1 1 1
f 1 1 1
f 1 1 1
f 1 1 1
f 1 1 1
f 1 1 1
f 1 1 1
f 1 1 1
f 1 1 1
f 1 1 1
f 1 1 1
f 1 1 1
f 1 1 1
f 1 1 1
f 1 1 1
f 1 1 1
f 1 1 1
f 1 1 1
f 1 1 1
f 1 1 1
f 1 1 1
f 1 1 1
f 1 1 1
f 1 1 1
f 1 1 1
f 1 1 1
f 1 1 1
f 1 1 1
f 1 1 1
f 1 1 1
f 1 1 1
f 1 1 1
f 1 1 1
f 1 1 1
f 1 1 1
f 1 1 1
f 1 1 1
f 1 1 1
f 1 1 1
f 1 1 1
f 1 1 1
f 1 1 1
f 1 1 1
f 1 1 1
f 1 1 1
f 1 1 1
f 1 1 1
f 1 1 1
f 1 1 1
f 1 1 1
f 1 1 1
f 1 1 1
f 1 1 1
f 1 1 1
f 1 1 1
f 1 1 1
f 1 1 1
f 1 1 1
f 1 1 1
f 1 1 1
f 1 1 1
f 1 1 1
f 1 1 1
f 1 1 1
f 1 1 1
f 1 1 1
f 1 1 1
f 1 1 1
f 1 1 1
f 1 1 1
f 1 1 1
f 1 1 1
f 1 1 1
f 1 1 1
f 1 1 1
f 1 1 1
f 1 1 1
f 1 1 1
f 1 1 1
f 1 1 1
f 1 1 1
f 1 1 1
f 1 1 1
f 1 1 1
f 1 1 1
f 1 1 1
f 1 1 1
f 1 1 1
f 1 1 1
f 1 1 1
f 1 1 1
f 1 1 1
f 1 1 1
f 1 1 1
f 1 1 1
f 1 1 1
f 1 1 1
f 1 1 1
f 1 1 1
f 1 1 1
f 1 1 1
f 1 1 1
f 1 1 1
f 1 1 1
f 1 1 1
f 1 1 1
f 1 1 1
f 1 1 1
f 1 1 1
f 1 1 1
f 1 1 1
f 1 1 1
f 1 1 1
f 1 1 1
f 1 1 1
f 1 1 1
f 1 1 1
f 1 1 1
f 1 1 1
f 1 1 1
f 1 1 1
f 1 1 1
f 1 1 1
f 1 1 1
f 1 1 1
f 1 1 1
f 1 1 1
f 1 1 1
f 1 1 1
f 1 1 1
f 1 1 1
f 1 1 1
f 1 1 1
f 1 1 1
f 1 1 1
f 1 1 1
f 1 1 1
f 1 1 1
f 1 1 1
f 1 1 1
f 1 1 1
f 1 1 1
f 1 1 1
f 1 1 1
f 1 1 1
f 1 1 1
f 1 1 1
f 1 1 1
f 1 1 1
f 1 1 1
f 1 1 1
f 1 1 1
f 1 1 1
f 1 1 1
f 1 1 1
f 1 1 1
f 1 1 1
f 1 1 1
f 1 1 1
f 1 1 1
f 1 1 1
f 1 1 1
f 1 1 1
f 1 1 1
f 1 1 1
f 1 1 1
f 1 1 1
f 1 1 1
f 1 1 1
f 1 1 1
f 1 1 1
f 1 1 1
f 1 1 1
f 1 1 1
f 1 1 1
f 1 1 1
f 1 1 1
f 1 1 1
f 1 1 1
f 1 1 1
f 1 1 1
f 1 1 1
f 1 1 1
f 1 1 1
f 1 1 1
f 1 1 1
f 1 1 1
f 1 1 1
f 1 1 1
f 1 1 1
f 1 1 1
f 1 1 1
f 1 1 1
f 1 1 1
f 1 1 1
f 1 1 1
f 1 1 1
f 1 1 1
f 1 1 1
f 1 1 1
f 1 1 1
f 1 1 1
f 1 1 1
f 1 1 1
f 1 1 1
f 1 1 1
f 1 1 1
f 1 1 1
f 1 1 1
f 1 1 1
f 1 1 1
f 1 1 1
f 1 1 1
f 1 1 1
f 1 1 1
f 1 1 1
f 1 1 1
f 1 1 1
f 1 1 1
f 1 1 1
f 1 1 1
f 1 1 1
f 1 1 1
f 1 1 1
f 1 1 1
f 1 1 1
f 1 1 1
f 1 1 1
f 1 1 1
f 1 1 1
f 1 1 1
f 1 1 1
f 1 1 1
f 1 1 1
f 1 1 1
f 1 1 1
f 1 1 1
f 1 1 1
f 1 1 1
f 1 1 1
f 1 1 1
f 1 1 1
f 1 1 1
f 1 1 1
f 1 1 1
f 1 1 1
f 1 1 1
f 1 1 1
f 1 1 1
f 1 1 1
f 1 1 1
f 1 1 1
f 1 1 1
f 1 1 1
f 1 1 1
f 1 1 1
f 1 1 1
f 1 1 1
f 1 1 1
f 1 1 1
f 1 1 1
f 1 1 1
f 1 1 1
f 1 1 1
f 1 1 1
f 1 1 1
f 1 1 1
f 1 1 1
f 1 1 1
f 1 1 1
f 1 1 1
f 1 1 1
f 1 1 1
f 1 1 1
f 1 1 1
f 1 1 1
f 1 1 1
f 1 1 1
f 1 1 1
f 1 1 1
f 1 1 1
f 1 1 1
f 1 1 1
f 1 1 1
f 1 1 1
f 1 1 1
f 1 1 1
f 1 1 1
f 1 1 1
f 1 1 1
f 1 1 1
f 1 1 1
f 1 1 1
f 1 1 1
f 1 1 1
f 1 1 1
f 1 1 1
f 1 1 1
f 1 1 1
f 1 1 1
f 1 1 1
f 1 1 1
f 1 1 1
f 1 1 1
f 1 1 1
f 1 1 1
f 1 1 1
f 1 1 1
f 1 1 1
f 1 1 1
f 1 1 1
f 1 1 1
f 1 1 1
f 1 1 1
f 1 1 1
f 1 1 1
f 1 1 1
f 1 1 1
f 1 1 1
f 1 1 1
f 1 1 1
f 1 1 1
f 1 1 1
f 1 1 1
f 1 1 1
f 1 1 1
f 1 1 1
f 1 1 1
f 1 1 1
f 1 1 1
f 1 1 1
f 1 1 1
f 1 1 1
f 1 1 1
f 1 1 1
f 1 1 1
f 1 1 1
f 1 1 1
f 1 1 1
f 1 1 1
f 1 1 1
f 1 1 1
f 1 1 1
f 1 1 1
f 1 1 1
f 1 1 1
f 1 1 1
f 1 1 1
f 1 1 1
f 1 1 1
f 1 1 1
f 1 1 1
f 1 1 1
f 1 1 1
f 1 1 1
f 1 1 1
f 1 1 1
f 1 1 1
f 1 1 1
f 1 1 1
f 1 1 1
f 1 1 1
f 1 1 1
f 1 1 1
f 1 1 1
f 1 1 1
f 1 1 1
f 1 1 1
f 1 1 1
f 1 1 1
f 1 1 1
f 1 1 1
f 1 1 1
f 1 1 1
f 1 1 1
f 1 1 1
f 1 1 1
f 1 1 1
f 1 1 1
f 1 1 1
f 1 1 1
f 1 1 1
f 1 1 1
f 1 1 1
f 1 1 1
f 1 1 1
f 1 1 1
f 1 1 1
f 1 1 1
f 1 1 1
f 1 1 1
f 1 1 1
f 1 1 1
f 1 1 1
f 1 1 1
f 1 1 1
f 1 1 1
f 1 1 1
f 1 1 1
f 1 1 1
f 1 1 1
f 1 1 1
f 1 1 1
f 1 1 1
f 1 1 1
f 1 1 1
f 1 1 1
f 1 1 1
f 1 1 1
f 1 1 1
f 1 1 1
f 1 1 1
f 1 1 1
f 1 1 1
f 1 1 1
f 1 1 1
f 1 1 1
f 1 1 1
f 1 1 1
f 1 1 1
f 1 1 1
f 1 1 1
f 1 1 1
f 1 1 1
f 1 1 1
f 1 1 1
f 1 1 1
f 1 1 1
f 1 1 1
f 1 1 1
f 1 1 1
f 1 1 1
f 1 1 1
f 1 1 1
f 1 1 1
f 1 1 1
f 1 1 1
f 1 1 1
f 1 1 1
f 1 1 1
f 1 1 1
f 1 1 1
f 1 1 1
f 1 1 1
f 1 1 1
f 1 1 1
f 1 1 1
f 1 1 1
f 1 1 1
f 1 1 1
f 1 1 1
f 1 1 1
f 1 1 1
f 1 1 1
f 1 1 1
f 1 1 1
f 1 1 1
f 1 1 1
f 1 1 1
f 1 1 1
f 1 1 1
f 1 1 1
f 1 1 1
f 1 1 1
f 1 1 1
f 1 1 1
f 1 1 1
f 1 1 1
f 1 1 1
f 1 1 1
f 1 1 1
f 1 1 1
f 1 1 1
f 1 1 1
f 1 1 1
f 1 1 1
f 1 1 1
f 1 1 1
f 1 1 1
f 1 1 1
f 1 1 1
f 1 1 1
f 1 1 1
f 1 1 1
f 1 1 1
f 1 1 1
f 1 1 1
f 1 1 1
f 1 1 1
f 1 1 1
f 1 1 1
f 1 1 1
f 1 1 1
f 1 1 1
f 1 1 1
f 1 1 1
f 1 1 1
f 1 1 1
f 1 1 1
f 1 1 1
f 1 1 1
f 1 1 1
f 1 1 1
f 1 1 1
f 1 1 1
f 1 1 1
f 1 1 1
f 1 1 1
f 1 1 1
f 1 1 1
f 1 1 1
f 1 1 1
f 1 1 1
f 1 1 1
f 1 1 1
f 1 1 1
f 1 1 1
f 1 1 1
f 1 1 1
f 1 1 1
f 1 1 1
f 1 1 1
f 1 1 1
f 1 1 1
f 1 1 1
f 1 1 1
f 1 1 1
f 1 1 1
f 1 1 1
f 1 1 1
f 1 1 1
f 1 1 1
f 1 1 1
f 1 1 1
f 1 1 1
f 1 1 1
f 1 1 1
f 1 1 1
f 1 1 1
f 1 1 1
f 1 1 1
f 1 1 1
f 1 1 1
f 1 1 1
f 1 1 1
f 1 1 1
f 1 1 1
f 1 1 1
f 1 1 1
f 1 1 1
f 1 1 1
f 1 1 1
f 1 1 1
f 1 1 1
f 1 1 1
f 1 1 1
f 1 1 1
f 1 1 1
f 1 1 1
f 1 1 1
f 1 1 1
f 1 1 1
f 1 1 1
f 1 1 1
f 1 1 1
f 1 1 1
f 1 1 1
f 1 1 1
f 1 1 1
f 1 1 1
f 1 1 1
f 1 1 1
f 1 1 1
f 1 1 1
f 1 1 1
f 1 1 1
f 1 1 1
f 1 1 1
f 1 1 1
f 1 1 1
f 1 1 1
f 1 1 1
f 1 1 1
f 1 1 1
f 1 1 1
f 1 1 1
f 1 1 1
f 1 1 1
f 1 1 1
f 1 1 1
f 1 1 1
f 1 1 1
f 1 1 1
f 1 1 1
f 1 1 1
f 1 1 1
f 1 1 1
f 1 1 1
f 1 1 1
f 1 1 1
f 1 1 1
f 1 1 1
f 1 1 1
f 1 1 1
f 1 1 1
f 1 1 1
f 1 1 1
f 1 1 1
f 1 1 1
f 1 1 1
f 1 1 1
f 1 1 1
f 1 1 1
f 1 1 1
f 1 1 1
f 1 1 1
f 1 1 1
f 1 1 1
f 1 1 1
f 1 1 1
f 1 1 1
f 1 1 1
f 1 1 1
f 1 1 1
f 1 1 1
f 1 1 1
f 1 1 1
f 1 1 1
f 1 1 1
f 1 1 1
f 1 1 1
f 1 1 1
f 1 1 1
f 1 1 1
f 1 1 1
f 1 1 1
f 1 1 1
f 1 1 1
f 1 1 1
f 1 1 1
f 1 1 1
f 1 1 1
f 1 1 1
f 1 1 1
f 1 1 1
f 1 1 1
f 1 1 1
f 1 1 1
f 1 1 1
f 1 1 1
f 1 1 1
f 1 1 1
f 1 1 1
f 1 1 1
f 1 1 1
f 1 1 1
f 1 1 1
f 1 1 1
f 1 1 1
f 1 1 1
f 1 1 1
f 1 1 1
f 1 1 1
f 1 1 1
f 1 1 1
f 1 1 1
f 1 1 1
f 1 1 1
f 1 1 1
f 1 1 1
f 1 1 1
f 1 1 1
f 1 1 1
f 1 1 1
f 1 1 1
f 1 1 1
f 1 1 1
f 1 1 1
f 1 1 1
f 1 1 1
f 1 1 1
f 1 1 1
f 1 1 1
f 1 1 1
f 1 1 1
f 1 1 1
f 1 1 1
f 1 1 1
f 1 1 1
f 1 1 1
f 1 1 1
f 1 1 1
f 1 1 1
f 1 1 1
f 1 1 1
f 1 1 1
f 1 1 1
f 1 1 1
f 1 1 1
f 1 1 1
f 1 1 1
f 1 1 1
f 1 1 1
f 1 1 1
f 1 1 1
f 1 1 1
f 1 1 1
f 1 1 1
f 1 1 1
f 1 1 1
f 1 1 1
f 1 1 1
f 1 1 1
f 1 1 1
f 1 1 1
f 1 1 1
f 1 1 1
f 1 1 1
f 1 1 1
f 1 1 1
f 1 1 1
f 1 1 1
f 1 1 1
f 1 1 1
f 1 1 1
f 1 1 1
f 1 1 1
f 1 1 1
f 1 1 1
f 1 1 1
f 1 1 1
f 1 1 1
f 1 1 1
f 1 1 1
f 1 1 1
f 1 1 1
f 1 1 1
f 1 1 1
f 1 1 1
f 1 1 1
f 1 1 1
f 1 1 1
f 1 1 1
f 1 1 1
f 1 1 1
f 1 1 1
f 1 1 1
f 1 1 1
f 1 1 1
f 1 1 1
f 1 1 1
f 1 1 1
f 1 1 1
f 1 1 1
f 1 1 1
f 1 1 1
f 1 1 1
f 1 1 1
f 1 1 1
f 1 1 1
f 1 1 1
f 1 1 1
f 1 1 1
f 1 1 1
f 1 1 1
f 1 1 1
f 1 1 1
f 1 1 1
f 1 1 1
f 1 1 1
f 1 1 1
f 1 1 1
f 1 1 1
f 1 1 1
f 1 1 1
f 1 1 1
f 1 1 1
f 1 1 1
f 1 1 1
f 1 1 1
f 1 1 1
f 1 1 1
f 1 1 1
f 1 1 1
f 1 1 1
f 1 1 1
f 1 1 1
f 1 1 1
f 1 1 1
f 1 1 1
f 1 1 1
f 1 1 1
f 1 1 1
f 1 1 1
f 1 1 1
f 1 1 1
f 1 1 1
f 1 1 1
f 1 1 1
f 1 1 1
f 1 1 1
f 1 1 1
f 1 1 1
f 1 1 1
f 1 1 1
f 1 1 1
f 1 1 1
f 1 1 1
f 1 1 1
f 1 1 1
f 1 1 1
f 1 1 1
f 1 1 1
f 1 1 1
f 1 1 1
f 1 1 1
f 1 1 1
f 1 1 1
f 1 1 1
f 1 1 1
f 1 1 1
f 1 1 1
f 1 1 1
f 1 1 1
f 1 1 1
f 1 1 1
f 1 1 1
f 1 1 1
f 1 1 1
f 1 1 1
f 1 1 1
f 1 1 1
f 1 1 1
f 1 1 1
f 1 1 1
f 1 1 1
f 1 1 1
f 1 1 1
f 1 1 1
f 1 1 1
f 1 1 1
f 1 1 1
f 1 1 1
f 1 1 1
f 1 1 1
f 1 1 1
f 1 1 1
f 1 1 1
f 1 1 1
f 1 1 1
f 1 1 1
f 1 1 1
f 1 1 1
f 1 1 1
f 1 1 1
f 1 1 1
f 1 1 1
f 1 1 1
f 1 1 1
f 1 1 1
f 1 1 1
f 1 1 1
f 1 1 1
f 1 1 1
f 1 1 1
f 1 1 1
f 1 1 1
f 1 1 1
f 1 1 1
f 1 1 1
f 1 1 1
f 1 1 1
f 1 1 1
f 1 1 1
f 1 1 1
f 1 1 1
f 1 1 1
f 1 1 1
f 1 1 1
f 1 1 1
f 1 1 1
f 1 1 1
f 1 1 1
f 1 1 1
f 1 1 1
f 1 1 1
f 1 1 1
f 1 1 1
f 1 1 1
f 1 1 1
f 1 1 1
f 1 1 1
f 1 1 1
f 1 1 1
f 1 1 1
f 1 1 1
f 1 1 1
f 1 1 1
f 1 1 1
f 1 1 1
f 1 1 1
f 1 1 1
f 1 1 1
f 1 1 1
f 1 1 1
f 1 1 1
f 1 1 1
f 1 1 1
f 1 1 1
f 1 1 1
f 1 1 1
f 1 1 1
f 1 1 1
f 1 1 1
f 1 1 1
f 1 1 1
f 1 1 1
f 1 1 1
f 1 1 1
f 1 1 1
f 1 1 1
f 1 1 1
f 1 1 1
f 1 1 1
f 1 1 1
f 1 1 1
f 1 1 1
f 1 1 1
f 1 1 1
f 1 1 1
f 1 1 1
f 1 1 1
f 1 1 1
f 1 1 1
f 1 1 1
f 1 1 1
f 1 1 1
f 1 1 1
f 1 1 1
f 1 1 1
f 1 1 1
f 1 1 1
f 1 1 1
f 1 1 1
f 1 1 1
f 1 1 1
f 1 1 1
f 1 1 1
f 1 1 1
f 1 1 1
f 1 1 1
f 1 1 1
f 1 1 1
f 1 1 1
f 1 1 1
f 1 1 1
f 1 1 1
f 1 1 1
f 1 1 1
f 1 1 1
f 1 1 1
f 1 1 1
f 1 1 1
f 1 1 1
f 1 1 1
f 1 1 1
f 1 1 1
f 1 1 1
f 1 1 1
f 1 1 1
f 1 1 1
f 1 1 1
f 1 1 1
f 1 1 1
f 1 1 1
f 1 1 1
f 1 1 1
f 1 1 1
f 1 1 1
f 1 1 1
f 1 1 1
f 1 1 1
f 1 1 1
f 1 1 1
f 1 1 1
f 1 1 1
f 1 1 1
f 1 1 1
f 1 1 1
f 1 1 1
f 1 1 1
f 1 1 1
f 1 1 1
f 1 1 1
f 1 1 1
f 1 1 1
f 1 1 1
f 1 1 1
f 1 1 1
f 1 1 1
f 1 1 1
f 1 1 1
f 1 1 1
f 1 1 1
f 1 1 1
f 1 1 1
f 1 1 1
f 1 1 1
f 1 1 1
f 1 1 1
f 1 1 1
f 1 1 1
f 1 1 1
f 1 1 1
f 1 1 1
f 1 1 1
f 1 1 1
f 1 1 1
f 1 1 1
f 1 1 1
f 1 1 1
f 1 1 1
f 1 1 1
f 1 1 1
f 1 1 1
f 1 1 1
f 1 1 1
f 1 1 1
f 1 1 1
f 1 1 1
f 1 1 1
f 1 1 1
f 1 1 1
f 1 1 1
f 1 1 1
f 1 1 1
f 1 1 1
f 1 1 1
f 1 1 1
f 1 1 1
f 1 1 1
f 1 1 1
f 1 1 1
f 1 1 1
f 1 1 1
f 1 1 1
f 1 1 1
f 1 1 1
f 1 1 1
f 1 1 1
f 1 1 1
f 1 1 1
f 1 1 1
f 1 1 1
f 1 1 1
f 1 1 1
f 1 1 1
f 1 1 1
f 1 1 1
f 1 1 1
f 1 1 1
f 1 1 1
f 1 1 1
f 1 1 1
f 1 1 1
f 1 1 1
f 1 1 1
f 1 1 1
f 1 1 1
f 1 1 1
f 1 1 1
f 1 1 1
f 1 1 1
f 1 1 1
f 1 1 1
f 1 1 1
f 1 1 1
f 1 1 1
f 1 1 1
f 1 1 1
f 1 1 1
f 1 1 1
f 1 1 1
f 1 1 1
f 1 1 1
f 1 1 1
f 1 1 1
f 1 1 1
f 1 1 1
f 1 1 1
f 1 1 1
f 1 1 1
f 1 1 1
f 1 1 1
f 1 1 1
f 1 1 1
f 1 1 1
f 1 1 1
f 1 1 1
f 1 1 1
f 1 1 1
f 1 1 1
f 1 1 1
f 1 1 1
f 1 1 1
f 1 1 1
f 1 1 1
f 1 1 1
f 1 1 1
f 1 1 1
f 1 1 1
f 1 1 1
f 1 1 1
f 1 1 1
f 1 1 1
f 1 1 1
f 1 1 1
f 1 1 1
f 1 1 1
f 1 1 1
f 1 1 1
f 1 1 1
f 1 1 1
f 1 1 1
f 1 1 1
f 1 1 1
f 1 1 1
f 1 1 1
f 1 1 1
f 1 1 1
f 1 1 1
f 1 1 1
f 1 1 1
f 1 1 1
f 1 1 1
f 1 1 1
f 1 1 1
f 1 1 1
f 1 1 1
f 1 1 1
f 1 1 1
f 1 1 1
f 1 1 1
f 1 1 1
f 1 1 1
f 1 1 1
f 1 1 1
f 1 1 1
f 1 1 1
f 1 1 1
f 1 1 1
f 1 1 1
f 1 1 1
f 1 1 1
f 1 1 1
f 1 1 1
f 1 1 1
f 1 1 1
f 1 1 1
f 1 1 1
f 1 1 1
f 1 1 1
f 1 1 1
f 1 1 1
f 1 1 1
f 1 1 1
f 1 1 1
f 1 1 1
f 1 1 1
f 1 1 1
f 1 1 1
f 1 1 1
f 1 1 1
f 1 1 1
f 1 1 1
f 1 1 1
f 1 1 1
f 1 1 1
f 1 1 1
f 1 1 1
f 1 1 1
f 1 1 1
f 1 1 1
f 1 1 1
f 1 1 1
f 1 1 1
f 1 1 1
f 1 1 1
f 1 1 1
f 1 1 1
f 1 1 1
f 1 1 1
f 1 1 1
f 1 1 1
f 1 1 1
f 1 1 1
f 1 1 1
f 1 1 1
f 1 1 1
f 1 1 1
f 1 1 1
f 1 1 1
f 1 1 1
f 1 1 1
f 1 1 1
f 1 1 1
f 1 1 1
f 1 1 1
f 1 1 1
f 1 1 1
f 1 1 1
f 1 1 1
f 1 1 1
f 1 1 1
f 1 1 1
f 1 1 1
f 1 1 1
f 1 1 1
f 1 1 1
f 1 1 1
f 1 1 1
f 1 1 1
f 1 1 1
f 1 1 1
f 1 1 1
f 1 1 1
f 1 1 1
f 1 1 1
f 1 1 1
f 1 1 1
f 1 1 1
f 1 1 1
f 1 1 1
f 1 1 1
f 1 1 1
f 1 1 1
f 1 1 1
f 1 1 1
f 1 1 1
f 1 1 1
f 1 1 1
f 1 1 1
f 1 1 1
f 1 1 1
f 1 1 1
f 1 1 1
f 1 1 1
f 1 1 1
f 1 1 1
f 1 1 1
f 1 1 1
f 1 1 1
f 1 1 1
f 1 1 1
f 1 1 1
f 1 1 1
f 1 1 1
f 1 1 1
f 1 1 1
f 1 1 1
f 1 1 1
f 1 1 1
f 1 1 1
f 1 1 1
f 1 1 1
f 1 1 1
f 1 1 1
f 1 1 1
f 1 1 1
f 1 1 1
f 1 1 1
f 1 1 1
f 1 1 1
f 1 1 1
f 1 1 1
f 1 1 1
f 1 1 1
f 1 1 1
f 1 1 1
f 1 1 1
f 1 1 1
f 1 1 1
f 1 1 1
f 1 1 1
f 1 1 1
f 1 1 1
f 1 1 1
f 1 1 1
f 1 1 1
f 1 1 1
f 1 1 1
f 1 1 1
f 1 1 1
f 1 1 1
f 1 1 1
f 1 1 1
f 1 1 1
f 1 1 1
f 1 1 1
f 1 1 1
f 1 1 1
f 1 1 1
f 1 1 1
f 1 1 1
f 1 1 1
f 1 1 1
f 1 1 1
f 1 1 1
f 1 1 1
f 1 1 1
f 1 1 1
f 1 1 1
f 1 1 1
f 1 1 1
f 1 1 1
f 1 1 1
f 1 1 1
f 1 1 1
f 1 1 1
f 1 1 1
f 1 1 1
f 1 1 1
f 1 1 1
f 1 1 1
f 1 1 1
f 1 1 1
f 1 1 1
f 1 1 1
f 1 1 1
f 1 1 1
f 1 1 1
f 1 1 1
f 1 1 1
f 1 1 1
f 1 1 1
f 1 1 1
f 1 1 1
f 1 1 1
f 1 1 1
f 1 1 1
f 1 1 1
f 1 1 1
f 1 1 1
f 1 1 1
f 1 1 1
f 1 1 1
f 1 1 1
f 1 1 1
f 1 1 1
f 1 1 1
f 1 1 1
f 1 1 1
f 1 1 1
f 1 1 1
f 1 1 1
f 1 1 1
f 1 1 1
f 1 1 1
f 1 1 1
f 1 1 1
f 1 1 1
f 1 1 1
f 1 1 1
f 1 1 1
f 1 1 1
f 1 1 1
f 1 1 1
f 1 1 1
f 1 1 1
f 1 1 1
f 1 1 1
f 1 1 1
f 1 1 1
f 1 1 1
f 1 1 1
f 1 1 1
f 1 1 1
f 1 1 1
f 1 1 1
f 1 1 1
f 1 1 1
f 1 1 1
f 1 1 1
f 1 1 1
f 1 1 1
f 1 1 1
f 1 1 1
f 1 1 1
f 1 1 1
f 1 1 1
f 1 1 1
f 1 1 1
f 1 1 1
f 1 1 1
f 1 1 1
f 1 1 1
f 1 1 1
f 1 1 1
f 1 1 1
f 1 1 1
f 1 1 1
f 1 1 1
f 1 1 1
f 1 1 1
f 1 1 1
f 1 1 1
f 1 1 1
f 1 1 1
f 1 1 1
f 1 1 1
f 1 1 1
f 1 1 1
f 1 1 1
f 1 1 1
f 1 1 1
f 1 1 1
f 1 1 1
f 1 1 1
f 1 1 1
f 1 1 1
f 1 1 1
f 1 1 1
f 1 1 1
f 1 1 1
f 1 1 1
f 1 1 1
f 1 1 1
f 1 1 1
f 1 1 1
f 1 1 1
f 1 1 1
f 1 1 1
f 1 1 1
f 1 1 1
f 1 1 1
f 1 1 1
f 1 1 1
f 1 1 1
f 1 1 1
f 1 1 1
f 1 1 1
f 1 1 1
f 1 1 1
f 1 1 1
f 1 1 1
f 1 1 1
f 1 1 1
f 1 1 1
f 1 1 1
f 1 1 1
f 1 1 1
f 1 1 1
f 1 1 1
f 1 1 1
f 1 1 1
f 1 1 1
f 1 1 1
f 1 1 1
f 1 1 1
f 1 1 1
f 1 1 1
f 1 1 1
f 1 1 1
f 1 1 1
f 1 1 1
f 1 1 1
f 1 1 1
f 1 1 1
f 1 1 1
f 1 1 1
f 1 1 1
f 1 1 1
f 1 1 1
f 1 1 1
f 1 1 1
f 1 1 1
f 1 1 1
f 1 1 1
f 1 1 1
f 1 1 1
f 1 1 1
f 1 1 1
f 1 1 1
f 1 1 1
f 1 1 1
f 1 1 1
f 1 1 1
f 1 1 1
f 1 1 1
f 1 1 1
f 1 1 1
f 1 1 1
f 1 1 1
f 1 1 1
f 1 1 1
f 1 1 1
f 1 1 1
f 1 1 1
f 1 1 1
f 1 1 1
f 1 1 1
f 1 1 1
f 1 1 1
f 1 1 1
f 1 1 1
f 1 1 1
f 1 1 1
f 1 1 1
f 1 1 1
f 1 1 1
f 1 1 1
f 1 1 1
f 1 1 1
f 1 1 1
f 1 1 1
f 1 1 1
f 1 1 1
f 1 1 1
f 1 1 1
f 1 1 1
f 1 1 1
f 1 1 1
f 1 1 1
f 1 1 1
f 1 1 1
f 1 1 1
f 1 1 1
f 1 1 1
f 1 1 1
f 1 1 1
f 1 1 1
f 1 1 1
f 1 1 1
f 1 1 1
f 1 1 1
f 1 1 1
f 1 1 1
f 1 1 1
f 1 1 1
f 1 1 1
f 1 1 1
f 1 1 1
f 1 1 1
f 1 1 1
f 1 1 1
f 1 1 1
f 1 1 1
f 1 1 1
f 1 1 1
f 1 1 1
f 1 1 1
f 1 1 1
f 1 1 1
f 1 1 1
f 1 1 1
f 1 1 1
f 1 1 1
f 1 1 1
f 1 1 1
f 1 1 1
f 1 1 1
f 1 1 1
f 1 1 1
f 1 1 1
f 1 1 1
f 1 1 1
f 1 1 1
f 1 1 1
f 1 1 1
f 1 1 1
f 1 1 1
f 1 1 1
f 1 1 1
f 1 1 1
f 1 1 1
f 1 1 1
f 1 1 1
f 1 1 1
f 1 1 1
f 1 1 1
f 1 1 1
f 1 1 1
f 1 1 1
f 1 1 1
f 1 1 1
f 1 1 1
f 1 1 1
f 1 1 1
f 1 1 1
f 1 1 1
f 1 1 1
f 1 1 1
f 1 1 1
f 1 1 1
f 1 1 1
f 1 1 1
f 1 1 1
f 1 1 1
f 1 1 1
f 1 1 1
f 1 1 1
f 1 1 1
f 1 1 1
f 1 1 1
f 1 1 1
f 1 1 1
f 1 1 1
f 1 1 1
f 1 1 1
f 1 1 1
f 1 1 1
f 1 1 1
f 1 1 1
f 1 1 1
f 1 1 1
f 1 1 1
f 1 1 1
f 1 1 1
f 1 1 1
f 1 1 1
f 1 1 1
f 1 1 1
f 1 1 1
f 1 1 1
f 1 1 1
f 1 1 1
f 1 1 1
f 1 1 1
f 1 1 1
f 1 1 1
f 1 1 1
f 1 1 1
f 1 1 1
f 1 1 1
f 1 1 1
f 1 1 1
f 1 1 1
f 1 1 1
f 1 1 1
f 1 1 1
f 1 1 1
f 1 1 1
f 1 1 1
f 1 1 1
f 1 1 1
f 1 1 1
f 1 1 1
f 1 1 1
f 1 1 1
f 1 1 1
f 1 1 1
f 1 1 1
f 1 1 1
f 1 1 1
f 1 1 1
f 1 1 1
f 1 1 1
f 1 1 1
f 1 1 1
f 1 1 1
f 1 1 1
f 1 1 1
f 1 1 1
f 1 1 1
f 1 1 1
f 1 1 1
f 1 1 1
f 1 1 1
f 1 1 1
f 1 1 1
f 1 1 1
f 1 1 1
f 1 1 1
f 1 1 1
f 1 1 1
f 1 1 1
f 1 1 1
f 1 1 1
f 1 1 1
f 1 1 1
f 1 1 1
f 1 1 1
f 1 1 1
f 1 1 1
f 1 1 1
f 1 1 1
f 1 1 1
f 1 1 1
f 1 1 1
f 1 1 1
f 1 1 1
f 1 1 1
f 1 1 1
f 1 1 1
f 1 1 1
f 1 1 1
f 1 1 1
f 1 1 1
f 1 1 1
f 1 1 1
f 1 1 1
f 1 1 1
f 1 1 1
f 1 1 1
f 1 1 1
f 1 1 1
f 1 1 1
f 1 1 1
f 1 1 1
f 1 1 1
f 1 1 1
f 1 1 1
f 1 1 1
f 1 1 1
f 1 1 1
f 1 1 1
f 1 1 1
f 1 1 1
f 1 1 1
f 1 1 1
f 1 1 1
f 1 1 1
f 1 1 1
f 1 1 1
f 1 1 1
f 1 1 1
f 1 1 1
f 1 1 1
f 1 1 1
f 1 1 1
f 1 1 1
f 1 1 1
f 1 1 1
f 1 1 1
f 1 1 1
f 1 1 1
f 1 1 1
f 1 1 1
f 1 1 1
f 1 1 1
f 1 1 1
f 1 1 1
f 1 1 1
f 1 1 1
f 1 1 1
f 1 1 1
f 1 1 1
f 1 1 1
f 1 1 1
f 1 1 1
f 1 1 1
f 1 1 1
f 1 1 1
f 1 1 1
f 1 1 1
f 1 1 1
f 1 1 1
f 1 1 1
f 1 1 1
f 1 1 1
f 1 1 1
f 1 1 1
f 1 1 1
f 1 1 1
f 1 1 1
f 1 1 1
f 1 1 1
f 1 1 1
f 1 1 1
f 1 1 1
f 1 1 1
f 1 1 1
f 1 1 1
f 1 1 1
f 1 1 1
f 1 1 1
f 1 1 1
f 1 1 1
f 1 1 1
f 1 1 1
f 1 1 1
f 1 1 1
f 1 1 1
f 1 1 1
f 1 1 1
f 1 1 1
f 1 1 1
f 1 1 1
f 1 1 1
f 1 1 1
f 1 1 1
f 1 1 1
f 1 1 1
f 1 1 1
f 1 1 1
f 1 1 1
f 1 1 1
f 1 1 1
f 1 1 1
f 1 1 1
f 1 1 1
f 1 1 1
f 1 1 1
f 1 1 1
f 1 1 1
f 1 1 1
f 1 1 1
f 1 1 1
f 1 1 1
f 1 1 1
f 1 1 1
f 1 1 1
f 1 1 1
f 1 1 1
f 1 1 1
f 1 1 1
f 1 1 1
f 1 1 1
f 1 1 1
f 1 1 1
f 1 1 1
f 1 1 1
f 1 1 1
f 1 1 1
f 1 1 1
f 1 1 1
f 1 1 1
f 1 1 1
f 1 1 1
f 1 1 1
f 1 1 1
f 1 1 1
f 1 1 1
f 1 1 1
f 1 1 1
f 1 1 1
f 1 1 1
f 1 1 1
f 1 1 1
f 1 1 1
f 1 1 1
f 1 1 1
f 1 1 1
f 1 1 1
f 1 1 1
f 1 1 1
f 1 1 1
f 1 1 1
f 1 1 1
f 1 1 1
f 1 1 1
f 1 1 1
f 1 1 1
f 1 1 1
f 1 1 1
f 1 1 1
f 1 1 1
f 1 1 1
f 1 1 1
f 1 1 1
f 1 1 1
f 1 1 1
f 1 1 1
f 1 1 1
f 1 1 1
f 1 1 1
f 1 1 1
f 1 1 1
f 1 1 1
f 1 1 1
f 1 1 1
f 1 1 1
f 1 1 1
f 1 1 1
f 1 1 1
f 1 1 1
f 1 1 1
f 1 1 1
f 1 1 1
f 1 1 1
f 1 1 1
f 1 1 1
f 1 1 1
f 1 1 1
f 1 1 1
f 1 1 1
f 1 1 1
f 1 1 1
f 1 1 1
f 1 1 1
f 1 1 1
f 1 1 1
f 1 1 1
f 1 1 1
f 1 1 1
f 1 1 1
f 1 1 1
f 1 1 1
f 1 1 1
f 1 1 1
f 1 1 1
f 1 1 1
f 1 1 1
f 1 1 1
f 1 1 1
f 1 1 1
f 1 1 1
f 1 1 1
f 1 1 1
f 1 1 1
f 1 1 1
f 1 1 1
f 1 1 1
f 1 1 1
f 1 1 1
f 1 1 1
f 1 1 1
f 1 1 1
f 1 1 1
f 1 1 1
f 1 1 1
f 1 1 1
f 1 1 1
f 1 1 1
f 1 1 1
f 1 1 1
f 1 1 1
f 1 1 1
f 1 1 1
f 1 1 1
f 1 1 1
f 1 1 1
f 1 1 1
f 1 1 1
f 1 1 1
f 1 1 1
f 1 1 1
f 1 1 1
f 1 1 1
f 1 1 1
f 1 1 1
f 1 1 1
f 1 1 1
f 1 1 1
f 1 1 1
f 1 1 1
f 1 1 1
f 1 1 1
f 1 1 1
f 1 1 1
f 1 1 1
f 1 1 1
f 1 1 1
f 1 1 1
f 1 1 1
f 1 1 1
f 1 1 1
f 1 1 1
f 1 1 1
f 1 1 1
f 1 1 1
f 1 1 1
f 1 1 1
f 1 1 1
f 1 1 1
f 1 1 1
f 1 1 1
f 1 1 1
f 1 1 1
f 1 1 1
f 1 1 1
f 1 1 1
f 1 1 1
f 1 1 1
f 1 1 1
f 1 1 1
f 1 1 1
f 1 1 1
f 1 1 1
f 1 1 1
f 1 1 1
f 1 1 1
f 1 1 1
f 1 1 1
f 1 1 1
f 1 1 1
f 1 1 1
f 1 1 1
f 1 1 1
f 1 1 1
f 1 1 1
f 1 1 1
f 1 1 1
f 1 1 1
f 1 1 1
f 1 1 1
f 1 1 1
f 1 1 1
f 1 1 1
f 1 1 1
f 1 1 1
f 1 1 1
f 1 1 1
f 1 1 1
f 1 1 1
f 1 1 1
f 1 1 1
f 1 1 1
f 1 1 1
f 1 1 1
f 1 1 1
f 1 1 1
f 1 1 1
f 1 1 1
f 1 1 1
f 1 1 1
f 1 1 1
f 1 1 1
f 1 1 1
f 1 1 1
f 1 1 1
f 1 1 1
f 1 1 1
f 1 1 1
f 1 1 1
f 1 1 1
f 1 1 1
f 1 1 1
f 1 1 1
f 1 1 1
f 1 1 1
f 1 1 1
f 1 1 1
f 1 1 1
f 1 1 1
f 1 1 1
f 1 1 1
f 1 1 1
f 1 1 1
f 1 1 1
f 1 1 1
f 1 1 1
f 1 1 1
f 1 1 1
f 1 1 1
f 1 1 1
f 1 1 1
f 1 1 1
f 1 1 1
f 1 1 1
f 1 1 1
f 1 1 1
f 1 1 1
f 1 1 1
f 1 1 1
f 1 1 1
f 1 1 1
f 1 1 1
f 1 1 1
f 1 1 1
f 1 1 1
f 1 1 1
f 1 1 1
f 1 1 1
f 1 1 1
f 1 1 1
f 1 1 1
f 1 1 1
f 1 1 1
f 1 1 1
f 1 1 1
f 1 1 1
f 1 1 1
f 1 1 1
f 1 1 1
f 1 1 1
f 1 1 1
f 1 1 1
f 1 1 1
f 1 1 1
f 1 1 1
f 1 1 1
f 1 1 1
f 1 1 1
f 1 1 1
f 1 1 1
f 1 1 1
f 1 1 1
f 1 1 1
f 1 1 1
f 1 1 1
f 1 1 1
f 1 1 1
f 1 1 1
f 1 1 1
f 1 1 1
f 1 1 1
f 1 1 1
f 1 1 1
f 1 1 1
f 1 1 1
f 1 1 1
f 1 1 1
f 1 1 1
f 1 1 1
f 1 1 1
f 1 1 1
f 1 1 1
f 1 1 1
f 1 1 1
f 1 1 1
f 1 1 1
f 1 1 1
f 1 1 1
f 1 1 1
f 1 1 1
f 1 1 1
f 1 1 1
f 1 1 1
f 1 1 1
f 1 1 1
f 1 1 1
f 1 1 1
f 1 1 1
f 1 1 1
f 1 1 1
f 1 1 1
f 1 1 1
f 1 1 1
f 1 1 1
f 1 1 1
f 1 1 1
f 1 1 1
f 1 1 1
f 1 1 1
f 1 1 1
f 1 1 1
f 1 1 1
f 1 1 1
f 1 1 1
f 1 1 1
f 1 1 1
f 1 1 1
f 1 1 1
f 1 1 1
f 1 1 1
f 1 1 1
f 1 1 1
f 1 1 1
f 1 1 1
f 1 1 1
f 1 1 1
f 1 1 1
f 1 1 1
f 1 1 1
f 1 1 1
f 1 1 1
f 1 1 1
f 1 1 1
f 1 1 1
f 1 1 1
f 1 1 1
f 1 1 1
f 1 1 1
f 1 1 1
f 1 1 1
f 1 1 1
f 1 1 1
f 1 1 1
f 1 1 1
f 1 1 1
f 1 1 1
f 1 1 1
f 1 1 1
f 1 1 1
f 1 1 1
f 1 1 1
f 1 1 1
f 1 1 1
f 1 1 1
f 1 1 1
f 1 1 1
f 1 1 1
f 1 1 1
f 1 1 1
f 1 1 1
f 1 1 1
f 1 1 1
f 1 1 1
f 1 1 1
f 1 1 1
f 1 1 1
f 1 1 1
f 1 1 1
f 1 1 1
f 1 1 1
f 1 1 1
f 1 1 1
f 1 1 1
f 1 1 1
f 1 1 1
f 1 1 1
f 1 1 1
f 1 1 1
f 1 1 1
f 1 1 1
f 1 1 1
f 1 1 1
f 1 1 1
f 1 1 1
f 1 1 1
f 1 1 1
f 1 1 1
f 1 1 1
f 1 1 1
f 1 1 1
f 1 1 1
f 1 1 1
f 1 1 1
f 1 1 1
f 1 1 1
f 1 1 1
f 1 1 1
f 1 1 1
f 1 1 1
f 1 1 1
f 1 1 1
f 1 1 1
f 1 1 1
f 1 1 1
f 1 1 1
f 1 1 1
f 1 1 1
f 1 1 1
f 1 1 1
f 1 1 1
f 1 1 1
f 1 1 1
f 1 1 1
f 1 1 1
f 1 1 1
f 1 1 1
f 1 1 1
f 1 1 1
f 1 1 1
f 1 1 1
f 1 1 1
f 1 1 1
f 1 1 1
f 1 1 1
f 1 1 1
f 1 1 1
f 1 1 1
f 1 1 1
f 1 1 1
f 1 1 1
f 1 1 1
f 1 1 1
f 1 1 1
f 1 1 1
f 1 1 1
f 1 1 1
f 1 1 1
f 1 1 1
f 1 1 1
f 1 1 1
f 1 1 1
f 1 1 1
f 1 1 1
f 1 1 1
f 1 1 1
f 1 1 1
f 1 1 1
f 1 1 1
f 1 1 1
f 1 1 1
f 1 1 1
f 1 1 1
f 1 1 1
f 1 1 1
f 1 1 1
f 1 1 1
f 1 1 1
f 1 1 1
f 1 1 1
f 1 1 1
f 1 1 1
f 1 1 1
f 1 1 1
f 1 1 1
f 1 1 1
f 1 1 1
f 1 1 1
f 1 1 1
f 1 1 1
f 1 1 1
f 1 1 1
f 1 1 1
f 1 1 1
f 1 1 1
f 1 1 1
f 1 1 1
f 1 1 1
f 1 1 1
f 1 1 1
f 1 1 1
f 1 1 1
f 1 1 1
f 1 1 1
f 1 1 1
f 1 1 1
f 1 1 1
f 1 1 1
f 1 1 1
f 1 1 1
f 1 1 1
f 1 1 1
f 1 1 1
f 1 1 1
f 1 1 1
f 1 1 1
f 1 1 1
f 1 1 1
f 1 1 1
f 1 1 1
f 1 1 1
f 1 1 1
f 1 1 1
f 1 1 1
f 1 1 1
f 1 1 1
f 1 1 1
f 1 1 1
f 1 1 1
f 1 1 1
f 1 1 1
f 1 1 1
f 1 1 1
f 1 1 1
f 1 1 1
f 1 1 1
f 1 1 1
f 1 1 1
f 1 1 1
f 1 1 1
f 1 1 1
f 1 1 1
f 1 1 1
f 1 1 1
f 1 1 1
f 1 1 1
f 1 1 1
f 1 1 1
f 1 1 1
f 1 1 1
f 1 1 1
f 1 1 1
f 1 1 1
f 1 1 1
f 1 1 1
f 1 1 1
f 1 1 1
f 1 1 1
f 1 1 1
f 1 1 1
f 1 1 1
f 1 1 1
f 1 1 1
f 1 1 1
f 1 1 1
f 1 1 1
f 1 1 1
f 1 1 1
f 1 1 1
f 1 1 1
f 1 1 1
f 1 1 1
f 1 1 1
f 1 1 1
f 1 1 1
f 1 1 1
f 1 1 1
f 1 1 1
f 1 1 1
f 1 1 1
f 1 1 1
f 1 1 1
f 1 1 1
f 1 1 1
f 1 1 1
f 1 1 1
f 1 1 1
f 1 1 1
f 1 1 1
f 1 1 1
f 1 1 1
f 1 1 1
f 1 1 1
f 1 1 1
f 1 1 1
f 1 1 1
f 1 1 1
f 1 1 1
f 1 1 1
f 1 1 1
f 1 1 1
f 1 1 1
f 1 1 1
f 1 1 1
f 1 1 1
f 1 1 1
f 1 1 1
f 1 1 1
f 1 1 1
f 1 1 1
f 1 1 1
f 1 1 1
f 1 1 1
f 1 1 1
f 1 1 1
f 1 1 1
f 1 1 1
f 1 1 1
f 1 1 1
f 1 1 1
f 1 1 1
f 1 1 1
f 1 1 1
f 1 1 1
f 1 1 1
f 1 1 1
f 1 1 1
f 1 1 1
f 1 1 1
f 1 1 1
f 1 1 1
f 1 1 1
f 1 1 1
f 1 1 1
f 1 1 1
f 1 1 1
f 1 1 1
f 1 1 1
f 1 1 1
f 1 1 1
f 1 1 1
f 1 1 1
f 1 1 1
f 1 1 1
f 1 1 1
f 1 1 1
f 1 1 1
f 1 1 1
f 1 1 1
f 1 1 1
f 1 1 1
f 1 1 1
f 1 1 1
f 1 1 1
f 1 1 1
f 1 1 1
f 1 1 1
f 1 1 1
f 1 1 1
f 1 1 1
f 1 1 1
f 1 1 1
f 1 1 1
f 1 1 1
f 1 1 1
f 1 1 1
f 1 1 1
f 1 1 1
f 1 1 1
f 1 1 1
f 1 1 1
f 1 1 1
f 1 1 1
f 1 1 1
f 1 1 1
f 1 1 1
f 1 1 1
f 1 1 1
f 1 1 1
f 1 1 1
f 1 1 1
f 1 1 1
f 1 1 1
f 1 1 1
f 1 1 1
f 1 1 1
f 1 1 1
f 1 1 1
f 1 1 1
f 1 1 1
f 1 1 1
f 1 1 1
f 1 1 1
f 1 1 1
f 1 1 1
f 1 1 1
f 1 1 1
f 1 1 1
f 1 1 1
f 1 1 1
f 1 1 1
f 1 1 1
f 1 1 1
f 1 1 1
f 1 1 1
f 1 1 1
f 1 1 1
f 1 1 1
f 1 1 1
f 1 1 1
f 1 1 1
f 1 1 1
f 1 1 1
f 1 1 1
f 1 1 1
f 1 1 1
f 1 1 1
f 1 1 1
f 1 1 1
f 1 1 1
f 1 1 1
f 1 1 1
f 1 1 1
f 1 1 1
f 1 1 1
f 1 1 1
f 1 1 1
f 1 1 1
f 1 1 1
f 1 1 1
f 1 1 1
f 1 1 1
f 1 1 1
f 1 1 1
f 1 1 1
f 1 1 1
f 1 1 1
f 1 1 1
f 1 1 1
f 1 1 1
f 1 1 1
f 1 1 1
f 1 1 1
f 1 1 1
f 1 1 1
f 1 1 1
f 1 1 1
f 1 1 1
f 1 1 1
f 1 1 1
f 1 1 1
f 1 1 1
f 1 1 1
f 1 1 1
f 1 1 1
f 1 1 1
f 1 1 1
f 1 1 1
f 1 1 1
f 1 1 1
f 1 1 1
f 1 1 1
f 1 1 1
f 1 1 1
f 1 1 1
f 1 1 1
f 1 1 1
f 1 1 1
f 1 1 1
f 1 1 1
f 1 1 1
f 1 1 1
f 1 1 1
f 1 1 1
f 1 1 1
f 1 1 1
f 1 1 1
f 1 1 1
f 1 1 1
f 1 1 1
f 1 1 1
f 1 1 1
f 1 1 1
f 1 1 1
f 1 1 1
f 1 1 1
f 1 1 1
f 1 1 1
f 1 1 1
f 1 1 1
f 1 1 1
f 1 1 1
f 1 1 1
f 1 1 1
f 1 1 1
f 1 1 1
f 1 1 1
f 1 1 1
f 1 1 1
f 1 1 1
f 1 1 1
f 1 1 1
f 1 1 1
f 1 1 1
f 1 1 1
f 1 1 1
f 1 1 1
f 1 1 1
f 1 1 1
f 1 1 1
f 1 1 1
f 1 1 1
f 1 1 1
f 1 1 1
f 1 1 1
f 1 1 1
f 1 1 1
f 1 1 1
f 1 1 1
f 1 1 1
f 1 1 1
f 1 1 1
f 1 1 1
f 1 1 1
f 1 1 1
f 1 1 1
f 1 1 1
f 1 1 1
f 1 1 1
f 1 1 1
f 1 1 1
f 1 1 1
f 1 1 1
f 1 1 1
f 1 1 1
f 1 1 1
f 1 1 1
f 1 1 1
f 1 1 1
f 1 1 1
f 1 1 1
f 1 1 1
f 1 1 1
f 1 1 1
f 1 1 1
f 1 1 1
f 1 1 1
f 1 1 1
f 1 1 1
f 1 1 1
f 1 1 1
f 1 1 1
f 1 1 1
f 1 1 1
f 1 1 1
f 1 1 1
f 1 1 1
f 1 1 1
f 1 1 1
f 1 1 1
f 1 1 1
f 1 1 1
f 1 1 1
f 1 1 2
f 1 1 1
f 1 1 1
f 1 1 1
f 1 1 1
f 1 1 1
f 1 1 1
f 1 1 1
f 1 1 1
f 1 1 1
f 1 1 1
f 1 1 1
f 1 1 1
f 1 1 1
f 1 1 1
f 1 1 1
f 1 1 1
f 1 1 1
f 1 1 1
f 1 1 1
f 1 1 1
f 1 1 1
f 1 1 1
f 1 1 1
f 1 1 1
f 1 1 1
f 1 1 1
f 1 1 1
f 1 1 1
f 1 1 1
f 1 1 1
f 1 1 1
f 1 1 1
f 1 1 1
f 1 1 1
f 1 1 1
f 1 1 1
f 1 1 1
f 1 1 1
f 1 1 1
f 1 1 1
f 1 1 1
f 1 1 1
f 1 1 1
f 1 1 1
f 1 1 1
f 1 1 1
f 1 1 1
f 1 1 1
f 1 1 1
f 1 1 1
f 1 1 1
f 1 1 1
f 1 1 1
f 1 1 1
f 1 1 1
f 1 1 1
f 1 1 1
f 1 1 1
f 1 1 1
f 1 1 1
f 1 1 1
f 1 1 1
f 1 1 1
f 1 1 1
f 1 1 1
f 1 1 1
f 1 1 1
f 1 1 1
f 1 1 1
f 1 1 1
f 1 1 1
f 1 1 1
f 1 1 1
f 1 1 1
f 1 1 1
f 1 1 1
f 1 1 1
f 1 1 1
f 1 1 1
f 1 1 1
f 1 1 1
f 1 1 1
f 1 1 1
f 1 1 1
f 1 1 1
f 1 1 1
f 1 1 1
f 1 1 1
f 1 1 1
f 1 1 1
f 1 1 1
f 1 1 1
f 1 1 1
f 1 1 1
f 1 1 1
f 1 1 1
f 1 1 1
f 1 1 1
f 1 1 1
f 1 1 1
f 1 1 1
f 1 1 1
f 1 1 1
f 1 1 1
f 1 1 1
f 1 1 1
f 1 1 1
f 1 1 1
f 1 1 1
f 1 1 1
f 1 1 1
f 1 1 1
f 1 1 1
f 1 1 1
f 1 1 1
f 1 1 1
f 1 1 1
f 1 1 1
f 1 1 1
f 1 1 1
f 1 1 1
f 1 1 1
f 1 1 1
f 1 1 1
f 1 1 1
f 1 1 1
f 1 1 1
f 1 1 1
f 1 1 1
f 1 1 1
f 1 1 1
f 1 1 1
f 1 1 1
f 1 1 1
f 1 1 1
f 1 1 1
f 1 1 1
f 1 1 1
f 1 1 1
f 1 1 1
f 1 1 1
f 1 1 1
f 1 1 1
f 1 1 1
f 1 1 1
f 1 1 1
f 1 1 1
f 1 1 1
f 1 1 1
f 1 1 1
f 1 1 1
f 1 1 1
f 1 1 1
f 1 1 1
f 1 1 1
f 1 1 1
f 1 1 1
f 1 1 1
f 1 1 1
f 1 1 1
f 1 1 1
f 1 1 1
f 1 1 1
f 1 1 1
f 1 1 1
f 1 1 1
f 1 1 1
f 1 1 1
f 1 1 1
f 1 1 1
f 1 1 1
f 1 1 1
f 1 1 1
f 1 1 1
f 1 1 1
f 1 1 1
f 1 1 1
f 1 1 1
f 1 1 1
f 1 1 1
f 1 1 1
f 1 1 1
f 1 1 1
f 1 1 1
f 1 1 1
f 1 1 1
f 1 1 1
f 1 1 1
f 1 1 1
f 1 1 1
f 1 1 1
f 1 1 1
f 1 1 1
f 1 1 1
f 1 1 1
f 1 1 1
f 1 1 1
f 1 1 1
f 1 1 1
f 1 1 1
f 1 1 1
f 1 1 1
f 1 1 1
f 1 1 1
f 1 1 1
f 1 1 1
f 1 1 1
f 1 1 1
f 1 1 1
f 1 1 1
f 1 1 1
f 1 1 1
f 1 1 1
f 1 1 1
f 1 1 1
f 1 1 1
f 1 1 1
f 1 1 1
f 1 1 1
f 1 1 1
f 1 1 1
f 1 1 1
f 1 1 1
f 1 1 1
f 1 1 1
f 1 1 1
f 1 1 1
f 1 1 1
f 1 1 1
f 1 1 1
f 1 1 1
f 1 1 1
f 1 1 1
f 1 1 1
f 1 1 1
f 1 1 1
f 1 1 1
f 1 1 1
f 1 1 1
f 1 1 1
f 1 1 1
f 1 1 1
f 1 1 1
f 1 1 1
f 1 1 1
f 1 1 1
f 1 1 1
f 1 1 1
f 1 1 1
f 1 1 1
f 1 1 1
f 1 1 1
f 1 1 1
f 1 1 1
f 1 1 1
f 1 1 1
f 1 1 1
f 1 1 1
f 1 1 1
f 1 1 1
f 1 1 1
f 1 1 1
f 1 1 1
f 1 1 1
f 1 1 1
f 1 1 1
f 1 1 1
f 1 1 1
f 1 1 1
f 1 1 1
f 1 1 1
f 1 1 1
f 1 1 1
f 1 1 1
f 1 1 1
f 1 1 1
f 1 1 1
f 1 1 1
f 1 1 1
f 1 1 1
f 1 1 1
f 1 1 1
f 1 1 1
f 1 1 1
f 1 1 1
f 1 1 1
f 1 1 1
f 1 1 1
f 1 1 1
f 1 1 1
f 1 1 1
f 1 1 1
f 1 1 1
f 1 1 1
f 1 1 1
f 1 1 1
f 1 1 1
f 1 1 1
f 1 1 1
f 1 1 1
f 1 1 1
f 1 1 1
f 1 1 1
f 1 1 1
f 1 1 1
f 1 1 1
f 1 1 1
f 1 1 1
f 1 1 1
f 1 1 1
f 1 1 1
f 1 1 1
f 1 1 1
f 1 1 1
f 1 1 1
f 1 1 1
f 1 1 1
f 1 1 1
f 1 1 1
f 1 1 1
f 1 1 1
f 1 1 1
f 1 1 1
f 1 1 1
f 1 1 1
f 1 1 1
f 1 1 1
f 1 1 1
f 1 1 1
f 1 1 1
f 1 1 1
f 1 1 1
f 1 1 1
f 1 1 1
f 1 1 1
f 1 1 1
f 1 1 1
f 1 1 1
f 1 1 1
f 1 1 1
f 1 1 1
f 1 1 1
f 1 1 1
f 1 1 1
f 1 1 1
f 1 1 1
f 1 1 1
f 1 1 1
f 1 1 1
f 1 1 1
f 1 1 1
f 1 1 1
f 1 1 1
f 1 1 1
f 1 1 1
f 1 1 1
f 1 1 1
f 1 1 1
f 1 1 1
f 1 1 1
f 1 1 1
f 1 1 1
f 1 1 1
f 1 1 1
f 1 1 1
f 1 1 1
f 1 1 1
f 1 1 1
f 1 1 1
f 1 1 1
f 1 1 1
f 1 1 1
f 1 1 1
f 1 1 1
f 1 1 1
f 1 1 1
f 1 1 1
f 1 1 1
f 1 1 1
f 1 1 1
f 1 1 1
f 1 1 1
f 1 1 1
f 1 1 1
f 1 1 1
f 1 1 1
f 1 1 1
f 1 1 1
f 1 1 1
f 1 1 1
f 1 1 1
f 1 1 1
f 1 1 1
f 1 1 1
f 1 1 1
f 1 1 1
f 1 1 1
f 1 1 1
f 1 1 1
f 1 1 1
f 1 1 1
f 1 1 1
f 1 1 1
f 1 1 1
f 1 1 1
f 1 1 1
f 1 1 1
f 1 1 1
f 1 1 1
f 1 1 1
f 1 1 1
f 1 1 1
f 1 1 1
f 1 1 1
f 1 1 1
f 1 1 1
f 1 1 1
f 1 1 1
f 1 1 1
f 1 1 1
f 1 1 1
f 1 1 1
f 1 1 1
f 1 1 1
f 1 1 1
f 1 1 1
f 1 1 1
f 1 1 1
f 1 1 1
f 1 1 1
f 1 1 1
f 1 1 1
f 1 1 1
f 1 1 1
f 1 1 1
f 1 1 1
f 1 1 1
f 1 1 1
f 1 1 1
f 1 1 1
f 1 1 1
f 1 1 1
f 1 1 1
f 1 1 1
f 1 1 1
f 1 1 1
f 1 1 1
f 1 1 1
f 1 1 1
f 1 1 1
f 1 1 1
f 1 1 1
f 1 1 1
f 1 1 1
f 1 1 1
f 1 1 1
f 1 1 1
f 1 1 1
f 1 1 1
f 1 1 1
f 1 1 1
f 1 1 1
f 1 1 1
f 1 1 1
f 1 1 1
f 1 1 1
f 1 1 1
f 1 1 1
f 1 1 1
f 1 1 1
f 1 1 1
f 1 1 1
f 1 1 1
f 1 1 1
f 1 1 1
f 1 1 1
f 1 1 1
f 1 1 1
f 1 1 1
f 1 1 1
f 1 1 1
f 1 1 1
f 1 1 1
f 1 1 1
f 1 1 1
f 1 1 1
f 1 1 1
f 1 1 1
f 1 1 1
f 1 1 1
f 1 1 1
f 1 1 1
f 1 1 1
f 1 1 1
f 1 1 1
f 1 1 1
f 1 1 1
f 1 1 1
f 1 1 1
f 1 1 1
f 1 1 1
f 1 1 1
f 1 1 1
f 1 1 1
f 1 1 1
f 1 1 1
f 1 1 1
f 1 1 1
f 1 1 1
f 1 1 1
f 1 1 1
f 1 1 1
f 1 1 1
f 1 1 1
f 1 1 1
f 1 1 1
f 1 1 1
f 1 1 1
f 1 1 1
f 1 1 1
f 1 1 1
f 1 1 1
f 1 1 1
f 1 1 1
f 1 1 1
f 1 1 1
f 1 1 1
f 1 1 1
f 1 1 1
f 1 1 1
f 1 1 1
f 1 1 1
f 1 1 1
f 1 1 1
f 1 1 1
f 1 1 1
f 1 1 1
f 1 1 1
f 1 1 1
f 1 1 1
f 1 1 1
f 1 1 1
f 1 1 1
f 1 1 1
f 1 1 1
f 1 1 1
f 1 1 1
f 1 1 1
f 1 1 1
f 1 1 1
f 1 1 1
f 1 1 1
f 1 1 1
f 1 1 1
f 1 1 1
f 1 1 1
f 1 1 1
f 1 1 1
f 1 1 1
f 1 1 1
f 1 1 1
f 1 1 1
f 1 1 1
f 1 1 1
f 1 1 1
f 1 1 1
f 1 1 1
f 1 1 1
f 1 1 1
f 1 1 1
f 1 1 1
f 1 1 1
f 1 1 1
f 1 1 1
f 1 1 1
f 1 1 1
f 1 1 1
f 1 1 1
f 1 1 1
f 1 1 1
f 1 1 1
f 1 1 1
f 1 1 1
f 1 1 1
f 1 1 1
f 1 1 1
f 1 1 1
f 1 1 1
f 1 1 1
f 1 1 1
f 1 1 1
f 1 1 1
f 1 1 1
f 1 1 1
f 1 1 1
f 1 1 1
f 1 1 1
f 1 1 1
f 1 1 1
f 1 1 1
f 1 1 1
f 1 1 1
f 1 1 1
f 1 1 1
f 1 1 1
f 1 1 1
f 1 1 1
f 1 1 1
f 1 1 1
f 1 1 1
f 1 1 1
f 1 1 1
f 1 1 1
f 1 1 1
f 1 1 1
f 1 1 1
f 1 1 1
f 1 1 1
f 1 1 1
f 1 1 1
f 1 1 1
f 1 1 1
f 1 1 1
f 1 1 1
f 1 1 1
f 1 1 1
f 1 1 1
f 1 1 1
f 1 1 1
f 1 1 1
f 1 1 1
f 1 1 1
f 1 1 1
f 1 1 1
f 1 1 1
f 1 1 1
f 1 1 1
f 1 1 1
f 1 1 1
f 1 1 1
f 1 1 1
f 1 1 1
f 1 1 1
f 1 1 1
f 1 1 1
f 1 1 1
f 1 1 1
f 1 1 1
f 1 1 1
f 1 1 1
f 1 1 1
f 1 1 1
f 1 1 1
f 1 1 1
f 1 1 1
f 1 1 1
f 1 1 1
f 1 1 1
f 1 1 1
f 1 1 1
f 1 1 1
f 1 1 1
f 1 1 1
f 1 1 1
f 1 1 1
f 1 1 1
f 1 1 1
f 1 1 1
f 1 1 1
f 1 1 1
f 1 1 1
f 1 1 1
f 1 1 1
f 1 1 1
f 1 1 1
f 1 1 1
f 1 1 1
f 1 1 1
f 1 1 1
f 1 1 1
f 1 1 1
f 1 1 1
f 1 1 1
f 1 1 1
f 1 1 1
f 1 1 1
f 1 1 1
f 1 1 1
f 1 1 1
f 1 1 1
f 1 1 1
f 1 1 1
f 1 1 1
f 1 1 1
f 1 1 1
f 1 1 1
f 1 1 1
f 1 1 1
f 1 1 1
f 1 1 1
f 1 1 1
f 1 1 1
f 1 1 1
f 1 1 1
f 1 1 1
f 1 1 1
f 1 1 1
f 1 1 1
f 1 1 1
f 1 1 1
f 1 1 1
f 1 1 1
f 1 1 1
f 1 1 1
f 1 1 1
f 1 1 1
f 1 1 1
f 1 1 1
f 1 1 1
f 1 1 1
f 1 1 1
f 1 1 1
f 1 1 1
f 1 1 1
f 1 1 1
f 1 1 1
f 1 1 1
f 1 1 1
f 1 1 1
f 1 1 1
f 1 1 1
f 1 1 1
f 1 1 1
f 1 1 1
f 1 1 1
f 1 1 1
f 1 1 1
f 1 1 1
f 1 1 1
f 1 1 1
f 1 1 1
f 1 1 1
f 1 1 1
f 1 1 1
f 1 1 1
f 1 1 1
f 1 1 1
f 1 1 1
f 1 1 1
f 1 1 1
f 1 1 1
f 1 1 1
f 1 1 1
f 1 1 1
f 1 1 1
f 1 1 1
f 1 1 1
f 1 1 1